<svg width="511" height="112" viewBox="0 0 511 112" fill="none" xmlns="http://www.w3.org/2000/svg">
<path d="M154.36 52.448C152.632 52.448 151.128 52.1387 149.848 51.52C148.568 50.9013 147.501 50.048 146.648 48.96C145.795 47.872 145.155 46.6133 144.728 45.184C144.323 43.7333 144.12 42.1867 144.12 40.544C144.12 38.9013 144.323 37.3547 144.728 35.904C145.155 34.4533 145.795 33.184 146.648 32.096C147.501 30.9867 148.579 30.1227 149.88 29.504C151.181 28.8853 152.707 28.576 154.456 28.576C155.864 28.576 157.112 28.7787 158.2 29.184C159.288 29.568 160.131 30.112 160.728 30.816C161.347 31.52 161.656 32.3413 161.656 33.28C161.656 34.3893 161.325 35.296 160.664 36C160.024 36.6827 159.213 37.024 158.232 37.024C157.784 37.024 157.56 36.896 157.56 36.64C157.56 36.5333 157.635 36.3733 157.784 36.16C157.955 35.9253 158.115 35.616 158.264 35.232C158.435 34.8267 158.52 34.3253 158.52 33.728C158.52 32.7253 158.147 31.9147 157.4 31.296C156.653 30.6773 155.672 30.368 154.456 30.368C153.197 30.368 152.141 30.6667 151.288 31.264C150.435 31.8613 149.741 32.6613 149.208 33.664C148.696 34.6453 148.323 35.744 148.088 36.96C147.853 38.1547 147.736 39.3493 147.736 40.544C147.736 42.3147 148.013 43.936 148.568 45.408C149.123 46.88 149.912 48.0533 150.936 48.928C151.981 49.8027 153.219 50.24 154.648 50.24C156.056 50.24 157.261 49.984 158.264 49.472C159.267 48.9387 160.067 48.2347 160.664 47.36C160.728 47.2747 160.803 47.232 160.888 47.232C161.08 47.232 161.293 47.328 161.528 47.52C161.784 47.712 161.912 47.9147 161.912 48.128C161.912 48.192 161.88 48.2773 161.816 48.384C160.984 49.6213 159.96 50.6133 158.744 51.36C157.528 52.0853 156.067 52.448 154.36 52.448ZM169.918 52.448C168.915 52.448 167.977 52.16 167.102 51.584C166.227 51.008 165.523 50.144 164.99 48.992C164.457 47.84 164.19 46.4 164.19 44.672C164.19 42.816 164.521 41.216 165.182 39.872C165.865 38.528 166.825 37.4933 168.062 36.768C169.321 36.0427 170.793 35.68 172.478 35.68C173.481 35.68 174.526 35.7973 175.614 36.032C176.702 36.2453 177.79 36.3947 178.878 36.48L179.23 36.896L178.846 37.472C178.718 37.664 178.611 37.856 178.526 38.048C178.462 38.2187 178.43 38.4427 178.43 38.72V49.184C178.43 49.8453 178.75 50.176 179.39 50.176C179.923 50.176 180.457 49.984 180.99 49.6L181.598 50.432C181.043 51.0507 180.446 51.5413 179.806 51.904C179.187 52.2667 178.601 52.448 178.046 52.448C177.171 52.448 176.542 52.1813 176.158 51.648C175.774 51.1147 175.582 50.2507 175.582 49.056C174.665 50.3573 173.737 51.2533 172.798 51.744C171.881 52.2133 170.921 52.448 169.918 52.448ZM171.198 49.984C172.009 49.984 172.787 49.7493 173.534 49.28C174.302 48.8107 174.985 48.0747 175.582 47.072V38.432C174.601 37.7707 173.555 37.44 172.446 37.44C170.889 37.44 169.683 38.0267 168.83 39.2C167.977 40.352 167.55 41.9733 167.55 44.064C167.55 45.5147 167.721 46.6773 168.062 47.552C168.403 48.4053 168.851 49.024 169.406 49.408C169.982 49.792 170.579 49.984 171.198 49.984ZM187.663 52.448C186.788 52.448 186.159 52.1813 185.775 51.648C185.391 51.1147 185.199 50.2507 185.199 49.056V30.432C185.199 29.9627 184.985 29.728 184.559 29.728H183.151L182.863 28.896C183.481 28.3413 184.185 27.8827 184.975 27.52C185.785 27.1573 186.489 26.976 187.087 26.976C187.385 26.976 187.62 27.072 187.791 27.264C187.983 27.456 188.079 27.7013 188.079 28V49.184C188.079 49.9093 188.399 50.272 189.039 50.272C189.572 50.272 190.105 50.048 190.639 49.6L191.247 50.432C190.692 51.0507 190.095 51.5413 189.455 51.904C188.815 52.2667 188.217 52.448 187.663 52.448ZM200.871 52.448C199.377 52.448 198.044 52.0853 196.871 51.36C195.719 50.6347 194.812 49.6427 194.151 48.384C193.489 47.1253 193.159 45.696 193.159 44.096C193.159 42.3893 193.479 40.9067 194.119 39.648C194.759 38.3893 195.655 37.4187 196.807 36.736C197.98 36.032 199.345 35.68 200.903 35.68C202.545 35.68 203.889 36.0853 204.935 36.896C206.001 37.6853 206.535 38.7093 206.535 39.968C206.535 40.8853 206.236 41.6427 205.639 42.24C205.063 42.816 204.316 43.104 203.399 43.104C202.993 43.104 202.791 42.9867 202.791 42.752C202.791 42.6453 202.855 42.5067 202.983 42.336C203.111 42.1653 203.239 41.9093 203.367 41.568C203.495 41.2053 203.559 40.7253 203.559 40.128C203.559 39.2747 203.281 38.6027 202.727 38.112C202.193 37.6 201.468 37.344 200.551 37.344C199.335 37.344 198.353 37.9413 197.607 39.136C196.86 40.3307 196.487 41.8987 196.487 43.84C196.487 45.824 196.924 47.4027 197.799 48.576C198.695 49.728 199.9 50.304 201.415 50.304C202.951 50.304 204.359 49.7707 205.639 48.704C205.703 48.64 205.799 48.608 205.927 48.608C206.097 48.608 206.268 48.704 206.439 48.896C206.631 49.088 206.727 49.2907 206.727 49.504C206.727 49.632 206.695 49.728 206.631 49.792C205.884 50.6453 205.009 51.3067 204.007 51.776C203.025 52.224 201.98 52.448 200.871 52.448ZM216.192 52.448C214.656 52.448 213.451 51.9893 212.576 51.072C211.723 50.1333 211.296 48.8213 211.296 47.136V39.136C211.296 38.6667 211.083 38.432 210.656 38.432H209.248L208.96 37.6C209.515 37.0453 210.187 36.5867 210.976 36.224C211.787 35.8613 212.523 35.68 213.184 35.68C213.483 35.68 213.728 35.776 213.92 35.968C214.112 36.16 214.208 36.4053 214.208 36.704V46.4C214.208 49.0027 215.232 50.304 217.28 50.304C218.709 50.304 219.819 49.6853 220.608 48.448C221.419 47.2107 221.824 45.504 221.824 43.328C221.824 42.2827 221.792 41.3867 221.728 40.64C221.685 39.8933 221.579 39.2427 221.408 38.688C221.237 38.112 220.96 37.5787 220.576 37.088L220.192 36.576L220.576 36.096L224.48 35.68V49.184C224.48 49.8453 224.789 50.176 225.408 50.176C225.899 50.176 226.421 49.984 226.976 49.6L227.584 50.432C227.093 51.0293 226.517 51.52 225.856 51.904C225.216 52.2667 224.619 52.448 224.064 52.448C222.421 52.448 221.6 51.424 221.6 49.376C221.131 50.3147 220.405 51.0613 219.424 51.616C218.464 52.1707 217.387 52.448 216.192 52.448ZM233.819 52.448C232.944 52.448 232.315 52.1813 231.931 51.648C231.547 51.1147 231.355 50.2507 231.355 49.056V30.432C231.355 29.9627 231.141 29.728 230.715 29.728H229.307L229.019 28.896C229.637 28.3413 230.341 27.8827 231.131 27.52C231.941 27.1573 232.645 26.976 233.243 26.976C233.541 26.976 233.776 27.072 233.947 27.264C234.139 27.456 234.235 27.7013 234.235 28V49.184C234.235 49.9093 234.555 50.272 235.195 50.272C235.728 50.272 236.261 50.048 236.795 49.6L237.403 50.432C236.848 51.0507 236.251 51.5413 235.611 51.904C234.971 52.2667 234.373 52.448 233.819 52.448Z" fill="#2980B9"/>
<path d="M263.616 52.448C262.506 52.448 261.632 52.128 260.992 51.488C260.352 50.8267 259.754 49.8987 259.2 48.704L256.768 43.552C256.554 43.0827 256.288 42.752 255.968 42.56C255.669 42.368 255.21 42.1653 254.592 41.952C254.186 41.8027 253.984 41.5573 253.984 41.216C253.984 41.024 254.026 40.8533 254.112 40.704C254.197 40.5333 254.325 40.448 254.496 40.448C254.624 40.448 254.794 40.4907 255.008 40.576C255.242 40.64 255.594 40.672 256.064 40.672C257.706 40.672 258.965 40.2133 259.84 39.296C260.714 38.3787 261.152 37.1733 261.152 35.68C261.152 34.1867 260.693 32.928 259.776 31.904C258.858 30.88 257.504 30.368 255.712 30.368C254.986 30.368 254.453 30.4533 254.112 30.624C253.77 30.7733 253.546 30.9653 253.44 31.2C253.333 31.4347 253.28 31.648 253.28 31.84V45.568C253.28 46.8693 253.386 47.9147 253.6 48.704C253.834 49.472 254.208 50.208 254.72 50.912L255.135 51.488L254.72 52H247.712L247.328 50.912L248.064 50.72C248.874 50.5067 249.418 50.208 249.696 49.824C249.973 49.4187 250.112 48.7253 250.112 47.744V31.936C250.112 31.424 249.877 31.168 249.408 31.168H247.552L247.168 29.984C247.722 29.7707 248.426 29.5573 249.28 29.344C250.154 29.1307 251.093 28.9493 252.096 28.8C253.12 28.6507 254.133 28.576 255.135 28.576C257.354 28.576 259.146 28.896 260.512 29.536C261.898 30.1547 262.901 30.9973 263.52 32.064C264.16 33.1307 264.48 34.304 264.48 35.584C264.48 37.0773 264.053 38.432 263.2 39.648C262.368 40.8427 261.066 41.6533 259.296 42.08C259.594 42.272 259.84 42.496 260.032 42.752C260.224 43.008 260.405 43.3067 260.576 43.648L263.552 49.696C263.701 49.9733 263.872 50.208 264.064 50.4C264.256 50.592 264.49 50.688 264.767 50.688C265.173 50.688 265.589 50.5387 266.016 50.24L266.56 51.168C266.09 51.616 265.6 51.936 265.088 52.128C264.597 52.3413 264.106 52.448 263.616 52.448ZM275.956 52.448C274.463 52.448 273.162 52.1067 272.052 51.424C270.964 50.7413 270.111 49.792 269.492 48.576C268.895 47.3387 268.596 45.8987 268.596 44.256C268.596 42.528 268.938 41.024 269.62 39.744C270.303 38.464 271.263 37.472 272.5 36.768C273.759 36.0427 275.22 35.68 276.884 35.68C278.122 35.68 279.135 35.904 279.924 36.352C280.735 36.8 281.332 37.3867 281.716 38.112C282.122 38.816 282.324 39.5733 282.324 40.384C282.324 41.2587 282.09 42.112 281.62 42.944C281.172 43.776 280.49 44.4587 279.572 44.992C278.676 45.5253 277.556 45.792 276.212 45.792C275.999 45.792 275.69 45.7707 275.284 45.728C274.9 45.664 274.506 45.5787 274.1 45.472C273.716 45.344 273.386 45.184 273.108 44.992C272.831 44.8 272.692 44.5653 272.692 44.288C272.692 44.1173 272.735 43.9573 272.82 43.808C272.927 43.6587 273.044 43.584 273.172 43.584C273.343 43.584 273.556 43.6587 273.812 43.808C274.09 43.936 274.559 44 275.22 44C276.138 44 276.895 43.8293 277.492 43.488C278.09 43.1253 278.538 42.6667 278.836 42.112C279.135 41.536 279.284 40.9493 279.284 40.352C279.284 39.5627 279.028 38.8587 278.516 38.24C278.004 37.6 277.247 37.28 276.244 37.28C274.879 37.28 273.812 37.8773 273.044 39.072C272.276 40.2667 271.892 41.9947 271.892 44.256C271.892 46.1333 272.287 47.616 273.076 48.704C273.887 49.792 275.071 50.336 276.628 50.336C277.524 50.336 278.367 50.1867 279.156 49.888C279.946 49.5893 280.66 49.1307 281.3 48.512C281.386 48.4267 281.482 48.384 281.588 48.384C281.759 48.384 281.94 48.4907 282.132 48.704C282.324 48.896 282.42 49.0987 282.42 49.312C282.42 49.4187 282.378 49.5147 282.292 49.6C280.65 51.4987 278.538 52.448 275.956 52.448ZM300.478 52.448C299.603 52.448 298.974 52.1813 298.59 51.648C298.206 51.1147 298.014 50.2507 298.014 49.056V41.44C298.014 39.264 297.096 38.176 295.262 38.176C294.344 38.176 293.534 38.5387 292.83 39.264C292.147 39.9893 291.603 41.0133 291.198 42.336C290.814 43.6373 290.622 45.152 290.622 46.88C290.622 47.8827 290.696 48.6827 290.846 49.28C290.995 49.8773 291.262 50.4533 291.646 51.008L292.03 51.52L291.646 52H286.046L285.694 51.008L286.366 50.848C286.92 50.72 287.283 50.4853 287.454 50.144C287.624 49.8027 287.71 49.2373 287.71 48.448V39.456C287.71 38.9867 287.496 38.752 287.07 38.752H285.662L285.374 37.92C285.992 37.3653 286.696 36.9067 287.486 36.544C288.296 36.1813 289 36 289.598 36C289.896 36 290.142 36.096 290.334 36.288C290.526 36.48 290.622 36.7253 290.622 37.024V40.448C290.984 39.5093 291.475 38.688 292.094 37.984C292.734 37.2587 293.438 36.6933 294.206 36.288C294.995 35.8827 295.795 35.68 296.606 35.68C298.099 35.68 299.187 36.1387 299.87 37.056C300.552 37.9733 300.894 39.4347 300.894 41.44V49.184C300.894 49.9093 301.214 50.272 301.854 50.272C302.344 50.272 302.878 50.048 303.454 49.6L304.062 50.432C303.507 51.0507 302.91 51.5413 302.27 51.904C301.63 52.2667 301.032 52.448 300.478 52.448ZM310.608 52.448C309.733 52.448 309.05 52.1813 308.56 51.648C308.09 51.0933 307.856 50.336 307.856 49.376V38.112H305.04C305.04 37.536 305.082 37.1627 305.168 36.992C305.253 36.8213 305.466 36.6933 305.808 36.608C306.64 36.3947 307.28 36.0853 307.728 35.68C308.197 35.2533 308.538 34.7733 308.752 34.24C308.986 33.7067 309.157 33.1413 309.264 32.544C309.328 32.2027 309.434 31.9893 309.584 31.904C309.754 31.8187 310.149 31.776 310.768 31.776V36.096H314.928C314.928 37.056 314.682 37.728 314.192 38.112H310.768V48.416C310.768 49.0773 310.864 49.5467 311.056 49.824C311.248 50.1013 311.557 50.24 311.984 50.24C312.624 50.24 313.349 49.8987 314.16 49.216L314.768 50.048C314.213 50.7733 313.552 51.36 312.784 51.808C312.016 52.2347 311.29 52.448 310.608 52.448ZM322.762 52.448C321.759 52.448 320.82 52.16 319.946 51.584C319.071 51.008 318.367 50.144 317.834 48.992C317.3 47.84 317.034 46.4 317.034 44.672C317.034 42.816 317.364 41.216 318.026 39.872C318.708 38.528 319.668 37.4933 320.906 36.768C322.164 36.0427 323.636 35.68 325.322 35.68C326.324 35.68 327.37 35.7973 328.458 36.032C329.546 36.2453 330.634 36.3947 331.722 36.48L332.074 36.896L331.69 37.472C331.562 37.664 331.455 37.856 331.37 38.048C331.306 38.2187 331.274 38.4427 331.274 38.72V49.184C331.274 49.8453 331.594 50.176 332.234 50.176C332.767 50.176 333.3 49.984 333.834 49.6L334.442 50.432C333.887 51.0507 333.29 51.5413 332.65 51.904C332.031 52.2667 331.444 52.448 330.89 52.448C330.015 52.448 329.386 52.1813 329.002 51.648C328.618 51.1147 328.426 50.2507 328.426 49.056C327.508 50.3573 326.58 51.2533 325.642 51.744C324.724 52.2133 323.764 52.448 322.762 52.448ZM324.042 49.984C324.852 49.984 325.631 49.7493 326.378 49.28C327.146 48.8107 327.828 48.0747 328.426 47.072V38.432C327.444 37.7707 326.399 37.44 325.29 37.44C323.732 37.44 322.527 38.0267 321.674 39.2C320.82 40.352 320.394 41.9733 320.394 44.064C320.394 45.5147 320.564 46.6773 320.906 47.552C321.247 48.4053 321.695 49.024 322.25 49.408C322.826 49.792 323.423 49.984 324.042 49.984ZM344.026 52.448C342.789 52.448 341.637 52.2667 340.57 51.904C339.504 51.5413 338.661 51.0507 338.042 50.432V30.432C338.042 29.9627 337.829 29.728 337.402 29.728H335.994L335.706 28.896C336.325 28.3413 337.029 27.8827 337.818 27.52C338.629 27.1573 339.333 26.976 339.93 26.976C340.229 26.976 340.474 27.072 340.666 27.264C340.858 27.456 340.954 27.7013 340.954 28V49.632C341.445 49.9733 341.957 50.2293 342.49 50.4C343.024 50.5707 343.632 50.656 344.314 50.656C345.744 50.656 346.874 50.0587 347.706 48.864C348.538 47.6693 348.954 46.0693 348.954 44.064C348.954 42.7627 348.762 41.6213 348.378 40.64C348.016 39.6373 347.504 38.8587 346.842 38.304C346.181 37.7493 345.413 37.472 344.538 37.472C343.877 37.472 343.408 37.5467 343.13 37.696C342.874 37.824 342.661 37.888 342.49 37.888C342.362 37.888 342.245 37.8133 342.138 37.664C342.053 37.5147 342.01 37.3547 342.01 37.184C342.01 36.928 342.106 36.736 342.298 36.608C342.832 36.2667 343.365 36.032 343.898 35.904C344.453 35.7547 344.997 35.68 345.53 35.68C346.874 35.68 348.058 36.0107 349.082 36.672C350.106 37.3333 350.906 38.2507 351.482 39.424C352.058 40.576 352.346 41.9093 352.346 43.424C352.346 45.152 351.984 46.6987 351.258 48.064C350.533 49.408 349.541 50.4747 348.282 51.264C347.045 52.0533 345.626 52.448 344.026 52.448ZM359.701 52.448C358.827 52.448 358.197 52.1813 357.813 51.648C357.429 51.1147 357.237 50.2507 357.237 49.056V39.136C357.237 38.6667 357.024 38.432 356.597 38.432H355.189L354.901 37.6C355.52 37.0453 356.224 36.5867 357.013 36.224C357.824 35.8613 358.528 35.68 359.125 35.68C359.424 35.68 359.659 35.776 359.829 35.968C360.021 36.16 360.117 36.4053 360.117 36.704V49.184C360.117 49.9093 360.437 50.272 361.077 50.272C361.611 50.272 362.144 50.048 362.677 49.6L363.285 50.432C362.731 51.0507 362.133 51.5413 361.493 51.904C360.853 52.2667 360.256 52.448 359.701 52.448ZM358.741 33.024C358.507 33.024 358.229 32.9067 357.909 32.672C357.611 32.4373 357.344 32.16 357.109 31.84C356.896 31.52 356.789 31.2213 356.789 30.944C356.789 30.6667 356.896 30.368 357.109 30.048C357.344 29.7067 357.611 29.4187 357.909 29.184C358.208 28.9493 358.485 28.832 358.741 28.832C359.019 28.832 359.307 28.9493 359.605 29.184C359.925 29.4187 360.192 29.7067 360.405 30.048C360.64 30.368 360.757 30.6667 360.757 30.944C360.757 31.2213 360.64 31.52 360.405 31.84C360.192 32.16 359.925 32.4373 359.605 32.672C359.307 32.9067 359.019 33.024 358.741 33.024ZM369.35 52.448C368.475 52.448 367.846 52.1813 367.462 51.648C367.078 51.1147 366.886 50.2507 366.886 49.056V30.432C366.886 29.9627 366.673 29.728 366.246 29.728H364.838L364.55 28.896C365.169 28.3413 365.873 27.8827 366.662 27.52C367.473 27.1573 368.177 26.976 368.774 26.976C369.073 26.976 369.307 27.072 369.478 27.264C369.67 27.456 369.766 27.7013 369.766 28V49.184C369.766 49.9093 370.086 50.272 370.726 50.272C371.259 50.272 371.793 50.048 372.326 49.6L372.934 50.432C372.379 51.0507 371.782 51.5413 371.142 51.904C370.502 52.2667 369.905 52.448 369.35 52.448ZM379.326 52.448C378.452 52.448 377.822 52.1813 377.438 51.648C377.054 51.1147 376.862 50.2507 376.862 49.056V39.136C376.862 38.6667 376.649 38.432 376.222 38.432H374.814L374.526 37.6C375.145 37.0453 375.849 36.5867 376.638 36.224C377.449 35.8613 378.153 35.68 378.75 35.68C379.049 35.68 379.284 35.776 379.454 35.968C379.646 36.16 379.742 36.4053 379.742 36.704V49.184C379.742 49.9093 380.062 50.272 380.702 50.272C381.236 50.272 381.769 50.048 382.302 49.6L382.91 50.432C382.356 51.0507 381.758 51.5413 381.118 51.904C380.478 52.2667 379.881 52.448 379.326 52.448ZM378.366 33.024C378.132 33.024 377.854 32.9067 377.534 32.672C377.236 32.4373 376.969 32.16 376.734 31.84C376.521 31.52 376.414 31.2213 376.414 30.944C376.414 30.6667 376.521 30.368 376.734 30.048C376.969 29.7067 377.236 29.4187 377.534 29.184C377.833 28.9493 378.11 28.832 378.366 28.832C378.644 28.832 378.932 28.9493 379.23 29.184C379.55 29.4187 379.817 29.7067 380.03 30.048C380.265 30.368 380.382 30.6667 380.382 30.944C380.382 31.2213 380.265 31.52 380.03 31.84C379.817 32.16 379.55 32.4373 379.23 32.672C378.932 32.9067 378.644 33.024 378.366 33.024ZM389.295 52.448C388.42 52.448 387.738 52.1813 387.247 51.648C386.778 51.0933 386.543 50.336 386.543 49.376V38.112H383.727C383.727 37.536 383.77 37.1627 383.855 36.992C383.94 36.8213 384.154 36.6933 384.495 36.608C385.327 36.3947 385.967 36.0853 386.415 35.68C386.884 35.2533 387.226 34.7733 387.439 34.24C387.674 33.7067 387.844 33.1413 387.951 32.544C388.015 32.2027 388.122 31.9893 388.271 31.904C388.442 31.8187 388.836 31.776 389.455 31.776V36.096H393.615C393.615 37.056 393.37 37.728 392.879 38.112H389.455V48.416C389.455 49.0773 389.551 49.5467 389.743 49.824C389.935 50.1013 390.244 50.24 390.671 50.24C391.311 50.24 392.036 49.8987 392.847 49.216L393.455 50.048C392.9 50.7733 392.239 51.36 391.471 51.808C390.703 52.2347 389.978 52.448 389.295 52.448ZM403.081 52.448C401.588 52.448 400.287 52.1067 399.177 51.424C398.089 50.7413 397.236 49.792 396.617 48.576C396.02 47.3387 395.721 45.8987 395.721 44.256C395.721 42.528 396.063 41.024 396.745 39.744C397.428 38.464 398.388 37.472 399.625 36.768C400.884 36.0427 402.345 35.68 404.009 35.68C405.247 35.68 406.26 35.904 407.049 36.352C407.86 36.8 408.457 37.3867 408.841 38.112C409.247 38.816 409.449 39.5733 409.449 40.384C409.449 41.2587 409.215 42.112 408.745 42.944C408.297 43.776 407.615 44.4587 406.697 44.992C405.801 45.5253 404.681 45.792 403.337 45.792C403.124 45.792 402.815 45.7707 402.409 45.728C402.025 45.664 401.631 45.5787 401.225 45.472C400.841 45.344 400.511 45.184 400.233 44.992C399.956 44.8 399.817 44.5653 399.817 44.288C399.817 44.1173 399.86 43.9573 399.945 43.808C400.052 43.6587 400.169 43.584 400.297 43.584C400.468 43.584 400.681 43.6587 400.937 43.808C401.215 43.936 401.684 44 402.345 44C403.263 44 404.02 43.8293 404.617 43.488C405.215 43.1253 405.663 42.6667 405.961 42.112C406.26 41.536 406.409 40.9493 406.409 40.352C406.409 39.5627 406.153 38.8587 405.641 38.24C405.129 37.6 404.372 37.28 403.369 37.28C402.004 37.28 400.937 37.8773 400.169 39.072C399.401 40.2667 399.017 41.9947 399.017 44.256C399.017 46.1333 399.412 47.616 400.201 48.704C401.012 49.792 402.196 50.336 403.753 50.336C404.649 50.336 405.492 50.1867 406.281 49.888C407.071 49.5893 407.785 49.1307 408.425 48.512C408.511 48.4267 408.607 48.384 408.713 48.384C408.884 48.384 409.065 48.4907 409.257 48.704C409.449 48.896 409.545 49.0987 409.545 49.312C409.545 49.4187 409.503 49.5147 409.417 49.6C407.775 51.4987 405.663 52.448 403.081 52.448ZM400.521 33.792L399.593 32.672L404.585 27.68C404.991 27.872 405.311 28.1387 405.545 28.48C405.801 28.8213 405.929 29.2267 405.929 29.696C405.929 30.1653 405.791 30.592 405.513 30.976C405.257 31.3387 404.799 31.68 404.137 32L400.521 33.792Z" fill="#96CA2D"/>
<path d="M421.695 52L421.311 50.912L422.047 50.72C422.858 50.5067 423.402 50.208 423.679 49.824C423.957 49.4187 424.095 48.7253 424.095 47.744V33.28C424.095 32.2773 423.957 31.584 423.679 31.2C423.402 30.816 422.858 30.5173 422.047 30.304L421.311 30.112L421.695 29.024H428.703L429.119 29.536L428.703 30.112C428.191 30.8373 427.818 31.584 427.583 32.352C427.37 33.12 427.263 34.1547 427.263 35.456V47.968C427.263 48.9067 427.391 49.5573 427.647 49.92C427.925 50.2613 428.447 50.5493 429.215 50.784L429.887 50.976L429.535 52H421.695ZM457.201 52.448C456.326 52.448 455.697 52.1813 455.313 51.648C454.929 51.1147 454.737 50.2507 454.737 49.056V41.44C454.737 39.264 453.947 38.176 452.369 38.176C451.473 38.176 450.683 38.528 450.001 39.232C449.318 39.9147 448.774 40.8853 448.369 42.144C447.985 43.3813 447.771 44.832 447.729 46.496V46.88C447.729 47.904 447.814 48.7573 447.985 49.44C448.155 50.1013 448.539 50.7947 449.137 51.52L448.753 52H444.849V41.44C444.849 39.264 444.059 38.176 442.481 38.176C441.563 38.176 440.753 38.5387 440.049 39.264C439.366 39.9893 438.822 41.0133 438.417 42.336C438.033 43.6373 437.841 45.152 437.841 46.88C437.841 47.8827 437.915 48.6827 438.065 49.28C438.214 49.8773 438.481 50.4533 438.865 51.008L439.249 51.52L438.865 52H433.265L432.913 51.008L433.585 50.848C434.139 50.72 434.502 50.4853 434.673 50.144C434.843 49.8027 434.929 49.2373 434.929 48.448V39.456C434.929 38.9867 434.715 38.752 434.289 38.752H432.881L432.593 37.92C433.211 37.3653 433.915 36.9067 434.705 36.544C435.515 36.1813 436.219 36 436.817 36C437.115 36 437.361 36.096 437.553 36.288C437.745 36.48 437.841 36.7253 437.841 37.024V40.448C438.203 39.5093 438.683 38.688 439.281 37.984C439.899 37.2587 440.582 36.6933 441.329 36.288C442.097 35.8827 442.865 35.68 443.633 35.68C444.934 35.68 445.915 36.064 446.577 36.832C447.238 37.6 447.622 38.8053 447.729 40.448C448.091 39.5093 448.571 38.688 449.169 37.984C449.787 37.2587 450.47 36.6933 451.217 36.288C451.985 35.8827 452.753 35.68 453.521 35.68C454.95 35.68 455.985 36.1387 456.625 37.056C457.286 37.9733 457.617 39.4347 457.617 41.44V49.184C457.617 49.9093 457.937 50.272 458.577 50.272C459.067 50.272 459.601 50.048 460.177 49.6L460.785 50.432C460.23 51.0507 459.633 51.5413 458.993 51.904C458.353 52.2667 457.755 52.448 457.201 52.448ZM487.326 52.448C486.451 52.448 485.822 52.1813 485.438 51.648C485.054 51.1147 484.862 50.2507 484.862 49.056V41.44C484.862 39.264 484.072 38.176 482.494 38.176C481.598 38.176 480.808 38.528 480.126 39.232C479.443 39.9147 478.899 40.8853 478.494 42.144C478.11 43.3813 477.896 44.832 477.854 46.496V46.88C477.854 47.904 477.939 48.7573 478.11 49.44C478.28 50.1013 478.664 50.7947 479.262 51.52L478.878 52H474.974V41.44C474.974 39.264 474.184 38.176 472.606 38.176C471.688 38.176 470.878 38.5387 470.174 39.264C469.491 39.9893 468.947 41.0133 468.542 42.336C468.158 43.6373 467.966 45.152 467.966 46.88C467.966 47.8827 468.04 48.6827 468.19 49.28C468.339 49.8773 468.606 50.4533 468.99 51.008L469.374 51.52L468.99 52H463.39L463.038 51.008L463.71 50.848C464.264 50.72 464.627 50.4853 464.798 50.144C464.968 49.8027 465.054 49.2373 465.054 48.448V39.456C465.054 38.9867 464.84 38.752 464.414 38.752H463.006L462.718 37.92C463.336 37.3653 464.04 36.9067 464.83 36.544C465.64 36.1813 466.344 36 466.942 36C467.24 36 467.486 36.096 467.678 36.288C467.87 36.48 467.966 36.7253 467.966 37.024V40.448C468.328 39.5093 468.808 38.688 469.406 37.984C470.024 37.2587 470.707 36.6933 471.454 36.288C472.222 35.8827 472.99 35.68 473.758 35.68C475.059 35.68 476.04 36.064 476.702 36.832C477.363 37.6 477.747 38.8053 477.854 40.448C478.216 39.5093 478.696 38.688 479.294 37.984C479.912 37.2587 480.595 36.6933 481.342 36.288C482.11 35.8827 482.878 35.68 483.646 35.68C485.075 35.68 486.11 36.1387 486.75 37.056C487.411 37.9733 487.742 39.4347 487.742 41.44V49.184C487.742 49.9093 488.062 50.272 488.702 50.272C489.192 50.272 489.726 50.048 490.302 49.6L490.91 50.432C490.355 51.0507 489.758 51.5413 489.118 51.904C488.478 52.2667 487.88 52.448 487.326 52.448ZM500.811 52.448C499.211 52.448 497.824 52.1067 496.651 51.424C495.499 50.7413 494.603 49.7707 493.963 48.512C493.323 47.2533 493.003 45.7707 493.003 44.064C493.003 42.336 493.323 40.8533 493.963 39.616C494.603 38.3573 495.499 37.3867 496.651 36.704C497.824 36.0213 499.211 35.68 500.811 35.68C502.411 35.68 503.787 36.0213 504.939 36.704C506.112 37.3867 507.019 38.3573 507.659 39.616C508.299 40.8533 508.619 42.336 508.619 44.064C508.619 45.7707 508.299 47.2533 507.659 48.512C507.019 49.7707 506.112 50.7413 504.939 51.424C503.787 52.1067 502.411 52.448 500.811 52.448ZM500.715 50.72C502.037 50.72 503.125 50.1227 503.979 48.928C504.832 47.712 505.259 46.1227 505.259 44.16C505.259 43.52 505.184 42.8053 505.035 42.016C504.907 41.2267 504.672 40.48 504.331 39.776C504.011 39.072 503.573 38.496 503.019 38.048C502.464 37.5787 501.76 37.344 500.907 37.344C500.011 37.344 499.211 37.632 498.507 38.208C497.824 38.7627 497.291 39.552 496.907 40.576C496.523 41.5787 496.331 42.752 496.331 44.096C496.331 46.1013 496.725 47.712 497.515 48.928C498.304 50.1227 499.371 50.72 500.715 50.72Z" fill="#545454"/>
<path d="M184.432 100.432L181.372 109H180.292L177.232 100.432H178.36L180.292 105.928C180.38 106.16 180.456 106.384 180.52 106.6C180.584 106.816 180.64 107.024 180.688 107.224C180.744 107.416 180.792 107.608 180.832 107.8C180.872 107.608 180.916 107.412 180.964 107.212C181.02 107.012 181.08 106.804 181.144 106.588C181.216 106.372 181.292 106.144 181.372 105.904L183.292 100.432H184.432ZM190.805 105.772C190.805 106.308 190.733 106.784 190.589 107.2C190.453 107.608 190.253 107.956 189.989 108.244C189.733 108.532 189.417 108.752 189.041 108.904C188.673 109.048 188.261 109.12 187.805 109.12C187.381 109.12 186.989 109.048 186.629 108.904C186.269 108.752 185.957 108.532 185.693 108.244C185.429 107.956 185.221 107.608 185.069 107.2C184.925 106.784 184.853 106.308 184.853 105.772C184.853 105.06 184.973 104.46 185.213 103.972C185.453 103.476 185.797 103.1 186.245 102.844C186.693 102.58 187.225 102.448 187.841 102.448C188.425 102.448 188.937 102.58 189.377 102.844C189.825 103.1 190.173 103.476 190.421 103.972C190.677 104.46 190.805 105.06 190.805 105.772ZM185.945 105.772C185.945 106.276 186.009 106.716 186.137 107.092C186.273 107.46 186.481 107.744 186.761 107.944C187.041 108.144 187.397 108.244 187.829 108.244C188.261 108.244 188.617 108.144 188.897 107.944C189.177 107.744 189.381 107.46 189.509 107.092C189.645 106.716 189.713 106.276 189.713 105.772C189.713 105.26 189.645 104.824 189.509 104.464C189.373 104.104 189.165 103.828 188.885 103.636C188.613 103.436 188.257 103.336 187.817 103.336C187.161 103.336 186.685 103.552 186.389 103.984C186.093 104.416 185.945 105.012 185.945 105.772ZM194.627 108.256C194.787 108.256 194.951 108.244 195.119 108.22C195.287 108.188 195.423 108.156 195.527 108.124V108.928C195.415 108.984 195.255 109.028 195.047 109.06C194.839 109.1 194.639 109.12 194.447 109.12C194.111 109.12 193.799 109.064 193.511 108.952C193.231 108.832 193.003 108.628 192.827 108.34C192.651 108.052 192.563 107.648 192.563 107.128V103.384H191.651V102.88L192.575 102.46L192.995 101.092H193.619V102.568H195.479V103.384H193.619V107.104C193.619 107.496 193.711 107.788 193.895 107.98C194.087 108.164 194.331 108.256 194.627 108.256ZM199.815 102.448C199.935 102.448 200.063 102.456 200.199 102.472C200.343 102.48 200.467 102.496 200.571 102.52L200.439 103.492C200.335 103.468 200.219 103.448 200.091 103.432C199.971 103.416 199.855 103.408 199.743 103.408C199.495 103.408 199.259 103.46 199.035 103.564C198.811 103.668 198.611 103.816 198.435 104.008C198.259 104.192 198.119 104.416 198.015 104.68C197.919 104.944 197.871 105.24 197.871 105.568V109H196.815V102.568H197.679L197.799 103.744H197.847C197.983 103.504 198.147 103.288 198.339 103.096C198.531 102.896 198.751 102.74 198.999 102.628C199.247 102.508 199.519 102.448 199.815 102.448ZM204.022 102.448C204.574 102.448 205.046 102.568 205.438 102.808C205.838 103.048 206.142 103.388 206.35 103.828C206.566 104.26 206.674 104.768 206.674 105.352V105.988H202.27C202.286 106.716 202.47 107.272 202.822 107.656C203.182 108.032 203.682 108.22 204.322 108.22C204.73 108.22 205.09 108.184 205.402 108.112C205.722 108.032 206.05 107.92 206.386 107.776V108.7C206.058 108.844 205.734 108.948 205.414 109.012C205.094 109.084 204.714 109.12 204.274 109.12C203.666 109.12 203.126 108.996 202.654 108.748C202.19 108.5 201.826 108.132 201.562 107.644C201.306 107.148 201.178 106.544 201.178 105.832C201.178 105.128 201.294 104.524 201.526 104.02C201.766 103.516 202.098 103.128 202.522 102.856C202.954 102.584 203.454 102.448 204.022 102.448ZM204.01 103.312C203.506 103.312 203.106 103.476 202.81 103.804C202.522 104.124 202.35 104.572 202.294 105.148H205.57C205.57 104.78 205.514 104.46 205.402 104.188C205.29 103.916 205.118 103.704 204.886 103.552C204.662 103.392 204.37 103.312 204.01 103.312ZM213.708 102.448C214.132 102.448 214.512 102.528 214.848 102.688C215.192 102.848 215.484 103.092 215.724 103.42H215.784L215.928 102.568H216.768V109.108C216.768 109.716 216.664 110.224 216.456 110.632C216.248 111.048 215.932 111.36 215.508 111.568C215.084 111.776 214.544 111.88 213.888 111.88C213.424 111.88 212.996 111.844 212.604 111.772C212.22 111.708 211.876 111.608 211.572 111.472V110.5C211.78 110.604 212.008 110.692 212.256 110.764C212.504 110.844 212.772 110.904 213.06 110.944C213.348 110.984 213.644 111.004 213.948 111.004C214.5 111.004 214.932 110.84 215.244 110.512C215.564 110.192 215.724 109.752 215.724 109.192V108.94C215.724 108.844 215.728 108.708 215.736 108.532C215.744 108.348 215.752 108.22 215.76 108.148H215.712C215.488 108.476 215.208 108.72 214.872 108.88C214.544 109.04 214.16 109.12 213.72 109.12C212.888 109.12 212.236 108.828 211.764 108.244C211.3 107.66 211.068 106.844 211.068 105.796C211.068 105.108 211.172 104.516 211.38 104.02C211.596 103.516 211.9 103.128 212.292 102.856C212.684 102.584 213.156 102.448 213.708 102.448ZM213.852 103.336C213.492 103.336 213.184 103.432 212.928 103.624C212.68 103.816 212.488 104.096 212.352 104.464C212.224 104.832 212.16 105.28 212.16 105.808C212.16 106.6 212.304 107.208 212.592 107.632C212.888 108.048 213.316 108.256 213.876 108.256C214.204 108.256 214.484 108.216 214.716 108.136C214.948 108.048 215.14 107.916 215.292 107.74C215.444 107.556 215.556 107.324 215.628 107.044C215.7 106.764 215.736 106.432 215.736 106.048V105.796C215.736 105.212 215.668 104.74 215.532 104.38C215.404 104.02 215.2 103.756 214.92 103.588C214.64 103.42 214.284 103.336 213.852 103.336ZM224.187 102.568V109H223.323L223.167 108.148H223.119C222.983 108.372 222.807 108.556 222.591 108.7C222.375 108.844 222.139 108.948 221.883 109.012C221.627 109.084 221.359 109.12 221.079 109.12C220.567 109.12 220.135 109.04 219.783 108.88C219.439 108.712 219.179 108.456 219.003 108.112C218.827 107.768 218.739 107.324 218.739 106.78V102.568H219.807V106.708C219.807 107.22 219.923 107.604 220.155 107.86C220.387 108.116 220.747 108.244 221.235 108.244C221.715 108.244 222.091 108.156 222.363 107.98C222.643 107.796 222.839 107.532 222.951 107.188C223.071 106.836 223.131 106.412 223.131 105.916V102.568H224.187ZM227.285 102.568V109H226.229V102.568H227.285ZM226.769 100.156C226.929 100.156 227.069 100.212 227.189 100.324C227.317 100.428 227.381 100.596 227.381 100.828C227.381 101.052 227.317 101.22 227.189 101.332C227.069 101.444 226.929 101.5 226.769 101.5C226.593 101.5 226.445 101.444 226.325 101.332C226.205 101.22 226.145 101.052 226.145 100.828C226.145 100.596 226.205 100.428 226.325 100.324C226.445 100.212 226.593 100.156 226.769 100.156ZM231.603 109.12C230.803 109.12 230.163 108.844 229.683 108.292C229.203 107.732 228.963 106.9 228.963 105.796C228.963 104.692 229.203 103.86 229.683 103.3C230.171 102.732 230.815 102.448 231.615 102.448C231.951 102.448 232.243 102.492 232.491 102.58C232.739 102.66 232.955 102.772 233.139 102.916C233.323 103.06 233.479 103.22 233.607 103.396H233.679C233.671 103.292 233.655 103.14 233.631 102.94C233.615 102.732 233.607 102.568 233.607 102.448V99.88H234.663V109H233.811L233.655 108.136H233.607C233.479 108.32 233.323 108.488 233.139 108.64C232.955 108.784 232.735 108.9 232.479 108.988C232.231 109.076 231.939 109.12 231.603 109.12ZM231.771 108.244C232.451 108.244 232.927 108.06 233.199 107.692C233.479 107.316 233.619 106.752 233.619 106V105.808C233.619 105.008 233.487 104.396 233.223 103.972C232.959 103.54 232.471 103.324 231.759 103.324C231.191 103.324 230.763 103.552 230.475 104.008C230.195 104.456 230.055 105.06 230.055 105.82C230.055 106.588 230.195 107.184 230.475 107.608C230.763 108.032 231.195 108.244 231.771 108.244ZM239.19 102.448C239.742 102.448 240.214 102.568 240.606 102.808C241.006 103.048 241.31 103.388 241.518 103.828C241.734 104.26 241.842 104.768 241.842 105.352V105.988H237.438C237.454 106.716 237.638 107.272 237.99 107.656C238.35 108.032 238.85 108.22 239.49 108.22C239.898 108.22 240.258 108.184 240.57 108.112C240.89 108.032 241.218 107.92 241.554 107.776V108.7C241.226 108.844 240.902 108.948 240.582 109.012C240.262 109.084 239.882 109.12 239.442 109.12C238.834 109.12 238.294 108.996 237.822 108.748C237.358 108.5 236.994 108.132 236.73 107.644C236.474 107.148 236.346 106.544 236.346 105.832C236.346 105.128 236.462 104.524 236.694 104.02C236.934 103.516 237.266 103.128 237.69 102.856C238.122 102.584 238.622 102.448 239.19 102.448ZM239.178 103.312C238.674 103.312 238.274 103.476 237.978 103.804C237.69 104.124 237.518 104.572 237.462 105.148H240.738C240.738 104.78 240.682 104.46 240.57 104.188C240.458 103.916 240.286 103.704 240.054 103.552C239.83 103.392 239.538 103.312 239.178 103.312ZM249.656 102.448C250.448 102.448 251.084 102.724 251.564 103.276C252.052 103.828 252.296 104.66 252.296 105.772C252.296 106.5 252.184 107.116 251.96 107.62C251.744 108.116 251.436 108.492 251.036 108.748C250.644 108.996 250.18 109.12 249.644 109.12C249.316 109.12 249.024 109.076 248.768 108.988C248.512 108.9 248.292 108.788 248.108 108.652C247.932 108.508 247.78 108.352 247.652 108.184H247.58C247.596 108.32 247.612 108.492 247.628 108.7C247.644 108.908 247.652 109.088 247.652 109.24V111.88H246.596V102.568H247.46L247.604 103.444H247.652C247.78 103.26 247.932 103.092 248.108 102.94C248.292 102.788 248.508 102.668 248.756 102.58C249.012 102.492 249.312 102.448 249.656 102.448ZM249.464 103.336C249.032 103.336 248.684 103.42 248.42 103.588C248.156 103.748 247.964 103.992 247.844 104.32C247.724 104.648 247.66 105.064 247.652 105.568V105.772C247.652 106.3 247.708 106.748 247.82 107.116C247.932 107.484 248.12 107.764 248.384 107.956C248.656 108.148 249.024 108.244 249.488 108.244C249.88 108.244 250.2 108.136 250.448 107.92C250.704 107.704 250.892 107.412 251.012 107.044C251.14 106.668 251.204 106.24 251.204 105.76C251.204 105.024 251.06 104.436 250.772 103.996C250.492 103.556 250.056 103.336 249.464 103.336ZM259.571 105.772C259.571 106.308 259.499 106.784 259.355 107.2C259.219 107.608 259.019 107.956 258.755 108.244C258.499 108.532 258.183 108.752 257.807 108.904C257.439 109.048 257.027 109.12 256.571 109.12C256.147 109.12 255.755 109.048 255.395 108.904C255.035 108.752 254.723 108.532 254.459 108.244C254.195 107.956 253.987 107.608 253.835 107.2C253.691 106.784 253.619 106.308 253.619 105.772C253.619 105.06 253.739 104.46 253.979 103.972C254.219 103.476 254.563 103.1 255.011 102.844C255.459 102.58 255.991 102.448 256.607 102.448C257.191 102.448 257.703 102.58 258.143 102.844C258.591 103.1 258.939 103.476 259.187 103.972C259.443 104.46 259.571 105.06 259.571 105.772ZM254.711 105.772C254.711 106.276 254.775 106.716 254.903 107.092C255.039 107.46 255.247 107.744 255.527 107.944C255.807 108.144 256.163 108.244 256.595 108.244C257.027 108.244 257.383 108.144 257.663 107.944C257.943 107.744 258.147 107.46 258.275 107.092C258.411 106.716 258.479 106.276 258.479 105.772C258.479 105.26 258.411 104.824 258.275 104.464C258.139 104.104 257.931 103.828 257.651 103.636C257.379 103.436 257.023 103.336 256.583 103.336C255.927 103.336 255.451 103.552 255.155 103.984C254.859 104.416 254.711 105.012 254.711 105.772ZM266.621 102.568V109H265.757L265.601 108.148H265.553C265.417 108.372 265.241 108.556 265.025 108.7C264.809 108.844 264.573 108.948 264.317 109.012C264.061 109.084 263.793 109.12 263.513 109.12C263.001 109.12 262.569 109.04 262.217 108.88C261.873 108.712 261.613 108.456 261.437 108.112C261.261 107.768 261.173 107.324 261.173 106.78V102.568H262.241V106.708C262.241 107.22 262.357 107.604 262.589 107.86C262.821 108.116 263.181 108.244 263.669 108.244C264.149 108.244 264.525 108.156 264.797 107.98C265.077 107.796 265.273 107.532 265.385 107.188C265.505 106.836 265.565 106.412 265.565 105.916V102.568H266.621ZM271.663 102.448C271.783 102.448 271.911 102.456 272.047 102.472C272.191 102.48 272.315 102.496 272.419 102.52L272.287 103.492C272.183 103.468 272.067 103.448 271.939 103.432C271.819 103.416 271.703 103.408 271.591 103.408C271.343 103.408 271.107 103.46 270.883 103.564C270.659 103.668 270.459 103.816 270.283 104.008C270.107 104.192 269.967 104.416 269.863 104.68C269.767 104.944 269.719 105.24 269.719 105.568V109H268.663V102.568H269.527L269.647 103.744H269.695C269.831 103.504 269.995 103.288 270.187 103.096C270.379 102.896 270.599 102.74 270.847 102.628C271.095 102.508 271.367 102.448 271.663 102.448ZM277.793 102.568V109H276.737V102.568H277.793ZM277.277 100.156C277.437 100.156 277.577 100.212 277.697 100.324C277.825 100.428 277.889 100.596 277.889 100.828C277.889 101.052 277.825 101.22 277.697 101.332C277.577 101.444 277.437 101.5 277.277 101.5C277.101 101.5 276.953 101.444 276.833 101.332C276.713 101.22 276.653 101.052 276.653 100.828C276.653 100.596 276.713 100.428 276.833 100.324C276.953 100.212 277.101 100.156 277.277 100.156ZM282.927 102.448C283.695 102.448 284.275 102.636 284.667 103.012C285.059 103.38 285.255 103.98 285.255 104.812V109H284.211V104.884C284.211 104.364 284.095 103.976 283.863 103.72C283.631 103.464 283.267 103.336 282.771 103.336C282.059 103.336 281.567 103.536 281.295 103.936C281.023 104.336 280.887 104.912 280.887 105.664V109H279.831V102.568H280.683L280.839 103.444H280.899C281.043 103.22 281.219 103.036 281.427 102.892C281.643 102.74 281.879 102.628 282.135 102.556C282.391 102.484 282.655 102.448 282.927 102.448ZM288.665 109L286.229 102.568H287.357L288.725 106.36C288.789 106.536 288.857 106.732 288.929 106.948C289.001 107.164 289.065 107.372 289.121 107.572C289.177 107.764 289.217 107.928 289.241 108.064H289.289C289.321 107.928 289.365 107.76 289.421 107.56C289.485 107.36 289.553 107.152 289.625 106.936C289.705 106.72 289.773 106.528 289.829 106.36L291.197 102.568H292.325L289.877 109H288.665ZM295.826 102.448C296.378 102.448 296.85 102.568 297.242 102.808C297.642 103.048 297.946 103.388 298.154 103.828C298.37 104.26 298.478 104.768 298.478 105.352V105.988H294.074C294.09 106.716 294.274 107.272 294.626 107.656C294.986 108.032 295.486 108.22 296.126 108.22C296.534 108.22 296.894 108.184 297.206 108.112C297.526 108.032 297.854 107.92 298.19 107.776V108.7C297.862 108.844 297.538 108.948 297.218 109.012C296.898 109.084 296.518 109.12 296.078 109.12C295.47 109.12 294.93 108.996 294.458 108.748C293.994 108.5 293.63 108.132 293.366 107.644C293.11 107.148 292.982 106.544 292.982 105.832C292.982 105.128 293.098 104.524 293.33 104.02C293.57 103.516 293.902 103.128 294.326 102.856C294.758 102.584 295.258 102.448 295.826 102.448ZM295.814 103.312C295.31 103.312 294.91 103.476 294.614 103.804C294.326 104.124 294.154 104.572 294.098 105.148H297.374C297.374 104.78 297.318 104.46 297.206 104.188C297.094 103.916 296.922 103.704 296.69 103.552C296.466 103.392 296.174 103.312 295.814 103.312ZM304.304 107.224C304.304 107.64 304.2 107.988 303.992 108.268C303.784 108.548 303.488 108.76 303.104 108.904C302.72 109.048 302.264 109.12 301.736 109.12C301.288 109.12 300.9 109.084 300.572 109.012C300.252 108.94 299.968 108.84 299.72 108.712V107.752C299.976 107.88 300.284 108 300.644 108.112C301.012 108.216 301.384 108.268 301.76 108.268C302.296 108.268 302.684 108.184 302.924 108.016C303.164 107.84 303.284 107.608 303.284 107.32C303.284 107.16 303.24 107.016 303.152 106.888C303.064 106.76 302.904 106.632 302.672 106.504C302.448 106.376 302.124 106.232 301.7 106.072C301.284 105.912 300.928 105.752 300.632 105.592C300.336 105.432 300.108 105.24 299.948 105.016C299.788 104.792 299.708 104.504 299.708 104.152C299.708 103.608 299.928 103.188 300.368 102.892C300.816 102.596 301.4 102.448 302.12 102.448C302.512 102.448 302.876 102.488 303.212 102.568C303.556 102.64 303.876 102.744 304.172 102.88L303.812 103.72C303.636 103.64 303.448 103.572 303.248 103.516C303.056 103.452 302.86 103.404 302.66 103.372C302.46 103.332 302.256 103.312 302.048 103.312C301.616 103.312 301.284 103.384 301.052 103.528C300.828 103.664 300.716 103.852 300.716 104.092C300.716 104.268 300.768 104.42 300.872 104.548C300.976 104.668 301.148 104.788 301.388 104.908C301.636 105.02 301.964 105.156 302.372 105.316C302.78 105.468 303.128 105.624 303.416 105.784C303.704 105.944 303.924 106.14 304.076 106.372C304.228 106.596 304.304 106.88 304.304 107.224ZM308.006 108.256C308.166 108.256 308.33 108.244 308.498 108.22C308.666 108.188 308.802 108.156 308.906 108.124V108.928C308.794 108.984 308.634 109.028 308.426 109.06C308.218 109.1 308.018 109.12 307.826 109.12C307.49 109.12 307.178 109.064 306.89 108.952C306.61 108.832 306.382 108.628 306.206 108.34C306.03 108.052 305.942 107.648 305.942 107.128V103.384H305.03V102.88L305.954 102.46L306.374 101.092H306.998V102.568H308.858V103.384H306.998V107.104C306.998 107.496 307.09 107.788 307.274 107.98C307.466 108.164 307.71 108.256 308.006 108.256ZM311.25 102.568V109H310.194V102.568H311.25ZM310.734 100.156C310.894 100.156 311.034 100.212 311.154 100.324C311.282 100.428 311.346 100.596 311.346 100.828C311.346 101.052 311.282 101.22 311.154 101.332C311.034 101.444 310.894 101.5 310.734 101.5C310.558 101.5 310.41 101.444 310.29 101.332C310.17 101.22 310.11 101.052 310.11 100.828C310.11 100.596 310.17 100.428 310.29 100.324C310.41 100.212 310.558 100.156 310.734 100.156ZM316.288 102.448C316.408 102.448 316.536 102.456 316.672 102.472C316.816 102.48 316.94 102.496 317.044 102.52L316.912 103.492C316.808 103.468 316.692 103.448 316.564 103.432C316.444 103.416 316.328 103.408 316.216 103.408C315.968 103.408 315.732 103.46 315.508 103.564C315.284 103.668 315.084 103.816 314.908 104.008C314.732 104.192 314.592 104.416 314.488 104.68C314.392 104.944 314.344 105.24 314.344 105.568V109H313.288V102.568H314.152L314.272 103.744H314.32C314.456 103.504 314.62 103.288 314.812 103.096C315.004 102.896 315.224 102.74 315.472 102.628C315.72 102.508 315.992 102.448 316.288 102.448ZM325.55 107.224C325.55 107.64 325.446 107.988 325.238 108.268C325.03 108.548 324.734 108.76 324.35 108.904C323.966 109.048 323.51 109.12 322.982 109.12C322.534 109.12 322.146 109.084 321.818 109.012C321.498 108.94 321.214 108.84 320.966 108.712V107.752C321.222 107.88 321.53 108 321.89 108.112C322.258 108.216 322.63 108.268 323.006 108.268C323.542 108.268 323.93 108.184 324.17 108.016C324.41 107.84 324.53 107.608 324.53 107.32C324.53 107.16 324.486 107.016 324.398 106.888C324.31 106.76 324.15 106.632 323.918 106.504C323.694 106.376 323.37 106.232 322.946 106.072C322.53 105.912 322.174 105.752 321.878 105.592C321.582 105.432 321.354 105.24 321.194 105.016C321.034 104.792 320.954 104.504 320.954 104.152C320.954 103.608 321.174 103.188 321.614 102.892C322.062 102.596 322.646 102.448 323.366 102.448C323.758 102.448 324.122 102.488 324.458 102.568C324.802 102.64 325.122 102.744 325.418 102.88L325.058 103.72C324.882 103.64 324.694 103.572 324.494 103.516C324.302 103.452 324.106 103.404 323.906 103.372C323.706 103.332 323.502 103.312 323.294 103.312C322.862 103.312 322.53 103.384 322.298 103.528C322.074 103.664 321.962 103.852 321.962 104.092C321.962 104.268 322.014 104.42 322.118 104.548C322.222 104.668 322.394 104.788 322.634 104.908C322.882 105.02 323.21 105.156 323.618 105.316C324.026 105.468 324.374 105.624 324.662 105.784C324.95 105.944 325.17 106.14 325.322 106.372C325.474 106.596 325.55 106.88 325.55 107.224ZM328.16 102.568V109H327.104V102.568H328.16ZM327.644 100.156C327.804 100.156 327.944 100.212 328.064 100.324C328.192 100.428 328.256 100.596 328.256 100.828C328.256 101.052 328.192 101.22 328.064 101.332C327.944 101.444 327.804 101.5 327.644 101.5C327.468 101.5 327.32 101.444 327.2 101.332C327.08 101.22 327.02 101.052 327.02 100.828C327.02 100.596 327.08 100.428 327.2 100.324C327.32 100.212 327.468 100.156 327.644 100.156ZM337.254 102.448C337.982 102.448 338.526 102.636 338.886 103.012C339.246 103.38 339.426 103.98 339.426 104.812V109H338.382V104.86C338.382 104.356 338.274 103.976 338.058 103.72C337.85 103.464 337.522 103.336 337.074 103.336C336.45 103.336 336.002 103.516 335.73 103.876C335.466 104.236 335.334 104.76 335.334 105.448V109H334.29V104.86C334.29 104.524 334.242 104.244 334.146 104.02C334.05 103.788 333.906 103.616 333.714 103.504C333.522 103.392 333.274 103.336 332.97 103.336C332.538 103.336 332.198 103.428 331.95 103.612C331.702 103.788 331.522 104.048 331.41 104.392C331.306 104.736 331.254 105.16 331.254 105.664V109H330.198V102.568H331.05L331.206 103.444H331.266C331.402 103.22 331.566 103.036 331.758 102.892C331.958 102.74 332.178 102.628 332.418 102.556C332.658 102.484 332.906 102.448 333.162 102.448C333.658 102.448 334.07 102.536 334.398 102.712C334.734 102.888 334.978 103.16 335.13 103.528H335.19C335.406 103.16 335.698 102.888 336.066 102.712C336.442 102.536 336.838 102.448 337.254 102.448ZM344.473 102.448C345.265 102.448 345.901 102.724 346.381 103.276C346.869 103.828 347.113 104.66 347.113 105.772C347.113 106.5 347.001 107.116 346.777 107.62C346.561 108.116 346.253 108.492 345.853 108.748C345.461 108.996 344.997 109.12 344.461 109.12C344.133 109.12 343.841 109.076 343.585 108.988C343.329 108.9 343.109 108.788 342.925 108.652C342.749 108.508 342.597 108.352 342.469 108.184H342.397C342.413 108.32 342.429 108.492 342.445 108.7C342.461 108.908 342.469 109.088 342.469 109.24V111.88H341.413V102.568H342.277L342.421 103.444H342.469C342.597 103.26 342.749 103.092 342.925 102.94C343.109 102.788 343.325 102.668 343.573 102.58C343.829 102.492 344.129 102.448 344.473 102.448ZM344.281 103.336C343.849 103.336 343.501 103.42 343.237 103.588C342.973 103.748 342.781 103.992 342.661 104.32C342.541 104.648 342.477 105.064 342.469 105.568V105.772C342.469 106.3 342.525 106.748 342.637 107.116C342.749 107.484 342.937 107.764 343.201 107.956C343.473 108.148 343.841 108.244 344.305 108.244C344.697 108.244 345.017 108.136 345.265 107.92C345.521 107.704 345.709 107.412 345.829 107.044C345.957 106.668 346.021 106.24 346.021 105.76C346.021 105.024 345.877 104.436 345.589 103.996C345.309 103.556 344.873 103.336 344.281 103.336ZM349.851 109H348.795V99.88H349.851V109ZM354.373 102.448C354.925 102.448 355.397 102.568 355.789 102.808C356.189 103.048 356.493 103.388 356.701 103.828C356.917 104.26 357.025 104.768 357.025 105.352V105.988H352.621C352.637 106.716 352.821 107.272 353.173 107.656C353.533 108.032 354.033 108.22 354.673 108.22C355.081 108.22 355.441 108.184 355.753 108.112C356.073 108.032 356.401 107.92 356.737 107.776V108.7C356.409 108.844 356.085 108.948 355.765 109.012C355.445 109.084 355.065 109.12 354.625 109.12C354.017 109.12 353.477 108.996 353.005 108.748C352.541 108.5 352.177 108.132 351.913 107.644C351.657 107.148 351.529 106.544 351.529 105.832C351.529 105.128 351.645 104.524 351.877 104.02C352.117 103.516 352.449 103.128 352.873 102.856C353.305 102.584 353.805 102.448 354.373 102.448ZM354.361 103.312C353.857 103.312 353.457 103.476 353.161 103.804C352.873 104.124 352.701 104.572 352.645 105.148H355.921C355.921 104.78 355.865 104.46 355.753 104.188C355.641 103.916 355.469 103.704 355.237 103.552C355.013 103.392 354.721 103.312 354.361 103.312ZM365.719 102.448C366.447 102.448 366.991 102.636 367.351 103.012C367.711 103.38 367.891 103.98 367.891 104.812V109H366.847V104.86C366.847 104.356 366.739 103.976 366.523 103.72C366.315 103.464 365.987 103.336 365.539 103.336C364.915 103.336 364.467 103.516 364.195 103.876C363.931 104.236 363.799 104.76 363.799 105.448V109H362.755V104.86C362.755 104.524 362.707 104.244 362.611 104.02C362.515 103.788 362.371 103.616 362.179 103.504C361.987 103.392 361.739 103.336 361.435 103.336C361.003 103.336 360.663 103.428 360.415 103.612C360.167 103.788 359.987 104.048 359.875 104.392C359.771 104.736 359.719 105.16 359.719 105.664V109H358.663V102.568H359.515L359.671 103.444H359.731C359.867 103.22 360.031 103.036 360.223 102.892C360.423 102.74 360.643 102.628 360.883 102.556C361.123 102.484 361.371 102.448 361.627 102.448C362.123 102.448 362.535 102.536 362.863 102.712C363.199 102.888 363.443 103.16 363.595 103.528H363.655C363.871 103.16 364.163 102.888 364.531 102.712C364.907 102.536 365.303 102.448 365.719 102.448ZM372.361 102.448C372.913 102.448 373.385 102.568 373.777 102.808C374.177 103.048 374.481 103.388 374.689 103.828C374.905 104.26 375.013 104.768 375.013 105.352V105.988H370.609C370.625 106.716 370.809 107.272 371.161 107.656C371.521 108.032 372.021 108.22 372.661 108.22C373.069 108.22 373.429 108.184 373.741 108.112C374.061 108.032 374.389 107.92 374.725 107.776V108.7C374.397 108.844 374.073 108.948 373.753 109.012C373.433 109.084 373.053 109.12 372.613 109.12C372.005 109.12 371.465 108.996 370.993 108.748C370.529 108.5 370.165 108.132 369.901 107.644C369.645 107.148 369.517 106.544 369.517 105.832C369.517 105.128 369.633 104.524 369.865 104.02C370.105 103.516 370.437 103.128 370.861 102.856C371.293 102.584 371.793 102.448 372.361 102.448ZM372.349 103.312C371.845 103.312 371.445 103.476 371.149 103.804C370.861 104.124 370.689 104.572 370.633 105.148H373.909C373.909 104.78 373.853 104.46 373.741 104.188C373.629 103.916 373.457 103.704 373.225 103.552C373.001 103.392 372.709 103.312 372.349 103.312ZM379.747 102.448C380.515 102.448 381.095 102.636 381.487 103.012C381.879 103.38 382.075 103.98 382.075 104.812V109H381.031V104.884C381.031 104.364 380.915 103.976 380.683 103.72C380.451 103.464 380.087 103.336 379.591 103.336C378.879 103.336 378.387 103.536 378.115 103.936C377.843 104.336 377.707 104.912 377.707 105.664V109H376.651V102.568H377.503L377.659 103.444H377.719C377.863 103.22 378.039 103.036 378.247 102.892C378.463 102.74 378.699 102.628 378.955 102.556C379.211 102.484 379.475 102.448 379.747 102.448ZM386.217 108.256C386.377 108.256 386.541 108.244 386.709 108.22C386.877 108.188 387.013 108.156 387.117 108.124V108.928C387.005 108.984 386.845 109.028 386.637 109.06C386.429 109.1 386.229 109.12 386.037 109.12C385.701 109.12 385.389 109.064 385.101 108.952C384.821 108.832 384.593 108.628 384.417 108.34C384.241 108.052 384.153 107.648 384.153 107.128V103.384H383.241V102.88L384.165 102.46L384.585 101.092H385.209V102.568H387.069V103.384H385.209V107.104C385.209 107.496 385.301 107.788 385.485 107.98C385.677 108.164 385.921 108.256 386.217 108.256ZM394.006 102.448C394.558 102.448 395.03 102.568 395.422 102.808C395.822 103.048 396.126 103.388 396.334 103.828C396.55 104.26 396.658 104.768 396.658 105.352V105.988H392.254C392.27 106.716 392.454 107.272 392.806 107.656C393.166 108.032 393.666 108.22 394.306 108.22C394.714 108.22 395.074 108.184 395.386 108.112C395.706 108.032 396.034 107.92 396.37 107.776V108.7C396.042 108.844 395.718 108.948 395.398 109.012C395.078 109.084 394.698 109.12 394.258 109.12C393.65 109.12 393.11 108.996 392.638 108.748C392.174 108.5 391.81 108.132 391.546 107.644C391.29 107.148 391.162 106.544 391.162 105.832C391.162 105.128 391.278 104.524 391.51 104.02C391.75 103.516 392.082 103.128 392.506 102.856C392.938 102.584 393.438 102.448 394.006 102.448ZM393.994 103.312C393.49 103.312 393.09 103.476 392.794 103.804C392.506 104.124 392.334 104.572 392.278 105.148H395.554C395.554 104.78 395.498 104.46 395.386 104.188C395.274 103.916 395.102 103.704 394.87 103.552C394.646 103.392 394.354 103.312 393.994 103.312ZM400.443 108.256C400.603 108.256 400.767 108.244 400.935 108.22C401.103 108.188 401.239 108.156 401.343 108.124V108.928C401.231 108.984 401.071 109.028 400.863 109.06C400.655 109.1 400.455 109.12 400.263 109.12C399.927 109.12 399.615 109.064 399.327 108.952C399.047 108.832 398.819 108.628 398.643 108.34C398.467 108.052 398.379 107.648 398.379 107.128V103.384H397.467V102.88L398.391 102.46L398.811 101.092H399.435V102.568H401.295V103.384H399.435V107.104C399.435 107.496 399.527 107.788 399.711 107.98C399.903 108.164 400.147 108.256 400.443 108.256ZM409.937 107.224C409.937 107.64 409.833 107.988 409.625 108.268C409.417 108.548 409.121 108.76 408.737 108.904C408.353 109.048 407.897 109.12 407.369 109.12C406.921 109.12 406.533 109.084 406.205 109.012C405.885 108.94 405.601 108.84 405.353 108.712V107.752C405.609 107.88 405.917 108 406.277 108.112C406.645 108.216 407.017 108.268 407.393 108.268C407.929 108.268 408.317 108.184 408.557 108.016C408.797 107.84 408.917 107.608 408.917 107.32C408.917 107.16 408.873 107.016 408.785 106.888C408.697 106.76 408.537 106.632 408.305 106.504C408.081 106.376 407.757 106.232 407.333 106.072C406.917 105.912 406.561 105.752 406.265 105.592C405.969 105.432 405.741 105.24 405.581 105.016C405.421 104.792 405.341 104.504 405.341 104.152C405.341 103.608 405.561 103.188 406.001 102.892C406.449 102.596 407.033 102.448 407.753 102.448C408.145 102.448 408.509 102.488 408.845 102.568C409.189 102.64 409.509 102.744 409.805 102.88L409.445 103.72C409.269 103.64 409.081 103.572 408.881 103.516C408.689 103.452 408.493 103.404 408.293 103.372C408.093 103.332 407.889 103.312 407.681 103.312C407.249 103.312 406.917 103.384 406.685 103.528C406.461 103.664 406.349 103.852 406.349 104.092C406.349 104.268 406.401 104.42 406.505 104.548C406.609 104.668 406.781 104.788 407.021 104.908C407.269 105.02 407.597 105.156 408.005 105.316C408.413 105.468 408.761 105.624 409.049 105.784C409.337 105.944 409.557 106.14 409.709 106.372C409.861 106.596 409.937 106.88 409.937 107.224ZM413.975 102.448C414.527 102.448 414.999 102.568 415.391 102.808C415.791 103.048 416.095 103.388 416.303 103.828C416.519 104.26 416.627 104.768 416.627 105.352V105.988H412.223C412.239 106.716 412.423 107.272 412.775 107.656C413.135 108.032 413.635 108.22 414.275 108.22C414.683 108.22 415.043 108.184 415.355 108.112C415.675 108.032 416.003 107.92 416.339 107.776V108.7C416.011 108.844 415.687 108.948 415.367 109.012C415.047 109.084 414.667 109.12 414.227 109.12C413.619 109.12 413.079 108.996 412.607 108.748C412.143 108.5 411.779 108.132 411.515 107.644C411.259 107.148 411.131 106.544 411.131 105.832C411.131 105.128 411.247 104.524 411.479 104.02C411.719 103.516 412.051 103.128 412.475 102.856C412.907 102.584 413.407 102.448 413.975 102.448ZM413.963 103.312C413.459 103.312 413.059 103.476 412.763 103.804C412.475 104.124 412.303 104.572 412.247 105.148H415.523C415.523 104.78 415.467 104.46 415.355 104.188C415.243 103.916 415.071 103.704 414.839 103.552C414.615 103.392 414.323 103.312 413.963 103.312ZM421.264 102.448C421.384 102.448 421.512 102.456 421.648 102.472C421.792 102.48 421.916 102.496 422.02 102.52L421.888 103.492C421.784 103.468 421.668 103.448 421.54 103.432C421.42 103.416 421.304 103.408 421.192 103.408C420.944 103.408 420.708 103.46 420.484 103.564C420.26 103.668 420.06 103.816 419.884 104.008C419.708 104.192 419.568 104.416 419.464 104.68C419.368 104.944 419.32 105.24 419.32 105.568V109H418.264V102.568H419.128L419.248 103.744H419.296C419.432 103.504 419.596 103.288 419.788 103.096C419.98 102.896 420.2 102.74 420.448 102.628C420.696 102.508 420.968 102.448 421.264 102.448ZM425.471 102.448C426.023 102.448 426.495 102.568 426.887 102.808C427.287 103.048 427.591 103.388 427.799 103.828C428.015 104.26 428.123 104.768 428.123 105.352V105.988H423.719C423.735 106.716 423.919 107.272 424.271 107.656C424.631 108.032 425.131 108.22 425.771 108.22C426.179 108.22 426.539 108.184 426.851 108.112C427.171 108.032 427.499 107.92 427.835 107.776V108.7C427.507 108.844 427.183 108.948 426.863 109.012C426.543 109.084 426.163 109.12 425.723 109.12C425.115 109.12 424.575 108.996 424.103 108.748C423.639 108.5 423.275 108.132 423.011 107.644C422.755 107.148 422.627 106.544 422.627 105.832C422.627 105.128 422.743 104.524 422.975 104.02C423.215 103.516 423.547 103.128 423.971 102.856C424.403 102.584 424.903 102.448 425.471 102.448ZM425.459 103.312C424.955 103.312 424.555 103.476 424.259 103.804C423.971 104.124 423.799 104.572 423.743 105.148H427.019C427.019 104.78 426.963 104.46 426.851 104.188C426.739 103.916 426.567 103.704 426.335 103.552C426.111 103.392 425.819 103.312 425.459 103.312ZM430.816 102.568V109H429.76V102.568H430.816ZM430.3 100.156C430.46 100.156 430.6 100.212 430.72 100.324C430.848 100.428 430.912 100.596 430.912 100.828C430.912 101.052 430.848 101.22 430.72 101.332C430.6 101.444 430.46 101.5 430.3 101.5C430.124 101.5 429.976 101.444 429.856 101.332C429.736 101.22 429.676 101.052 429.676 100.828C429.676 100.596 429.736 100.428 429.856 100.324C429.976 100.212 430.124 100.156 430.3 100.156ZM435.95 102.448C436.718 102.448 437.298 102.636 437.69 103.012C438.082 103.38 438.278 103.98 438.278 104.812V109H437.234V104.884C437.234 104.364 437.118 103.976 436.886 103.72C436.654 103.464 436.29 103.336 435.794 103.336C435.082 103.336 434.59 103.536 434.318 103.936C434.046 104.336 433.91 104.912 433.91 105.664V109H432.854V102.568H433.706L433.862 103.444H433.922C434.066 103.22 434.242 103.036 434.45 102.892C434.666 102.74 434.902 102.628 435.158 102.556C435.414 102.484 435.678 102.448 435.95 102.448ZM442.756 102.448C443.308 102.448 443.78 102.568 444.172 102.808C444.572 103.048 444.876 103.388 445.084 103.828C445.3 104.26 445.408 104.768 445.408 105.352V105.988H441.004C441.02 106.716 441.204 107.272 441.556 107.656C441.916 108.032 442.416 108.22 443.056 108.22C443.464 108.22 443.824 108.184 444.136 108.112C444.456 108.032 444.784 107.92 445.12 107.776V108.7C444.792 108.844 444.468 108.948 444.148 109.012C443.828 109.084 443.448 109.12 443.008 109.12C442.4 109.12 441.86 108.996 441.388 108.748C440.924 108.5 440.56 108.132 440.296 107.644C440.04 107.148 439.912 106.544 439.912 105.832C439.912 105.128 440.028 104.524 440.26 104.02C440.5 103.516 440.832 103.128 441.256 102.856C441.688 102.584 442.188 102.448 442.756 102.448ZM442.744 103.312C442.24 103.312 441.84 103.476 441.544 103.804C441.256 104.124 441.084 104.572 441.028 105.148H444.304C444.304 104.78 444.248 104.46 444.136 104.188C444.024 103.916 443.852 103.704 443.62 103.552C443.396 103.392 443.104 103.312 442.744 103.312ZM454.101 102.448C454.829 102.448 455.373 102.636 455.733 103.012C456.093 103.38 456.273 103.98 456.273 104.812V109H455.229V104.86C455.229 104.356 455.121 103.976 454.905 103.72C454.697 103.464 454.369 103.336 453.921 103.336C453.297 103.336 452.849 103.516 452.577 103.876C452.313 104.236 452.181 104.76 452.181 105.448V109H451.137V104.86C451.137 104.524 451.089 104.244 450.993 104.02C450.897 103.788 450.753 103.616 450.561 103.504C450.369 103.392 450.121 103.336 449.817 103.336C449.385 103.336 449.045 103.428 448.797 103.612C448.549 103.788 448.369 104.048 448.257 104.392C448.153 104.736 448.101 105.16 448.101 105.664V109H447.045V102.568H447.897L448.053 103.444H448.113C448.249 103.22 448.413 103.036 448.605 102.892C448.805 102.74 449.025 102.628 449.265 102.556C449.505 102.484 449.753 102.448 450.009 102.448C450.505 102.448 450.917 102.536 451.245 102.712C451.581 102.888 451.825 103.16 451.977 103.528H452.037C452.253 103.16 452.545 102.888 452.913 102.712C453.289 102.536 453.685 102.448 454.101 102.448ZM460.744 102.448C461.296 102.448 461.768 102.568 462.16 102.808C462.56 103.048 462.864 103.388 463.072 103.828C463.288 104.26 463.396 104.768 463.396 105.352V105.988H458.992C459.008 106.716 459.192 107.272 459.544 107.656C459.904 108.032 460.404 108.22 461.044 108.22C461.452 108.22 461.812 108.184 462.124 108.112C462.444 108.032 462.772 107.92 463.108 107.776V108.7C462.78 108.844 462.456 108.948 462.136 109.012C461.816 109.084 461.436 109.12 460.996 109.12C460.388 109.12 459.848 108.996 459.376 108.748C458.912 108.5 458.548 108.132 458.284 107.644C458.028 107.148 457.9 106.544 457.9 105.832C457.9 105.128 458.016 104.524 458.248 104.02C458.488 103.516 458.82 103.128 459.244 102.856C459.676 102.584 460.176 102.448 460.744 102.448ZM460.732 103.312C460.228 103.312 459.828 103.476 459.532 103.804C459.244 104.124 459.072 104.572 459.016 105.148H462.292C462.292 104.78 462.236 104.46 462.124 104.188C462.012 103.916 461.84 103.704 461.608 103.552C461.384 103.392 461.092 103.312 460.732 103.312ZM468.13 102.448C468.898 102.448 469.478 102.636 469.87 103.012C470.262 103.38 470.458 103.98 470.458 104.812V109H469.414V104.884C469.414 104.364 469.298 103.976 469.066 103.72C468.834 103.464 468.47 103.336 467.974 103.336C467.262 103.336 466.77 103.536 466.498 103.936C466.226 104.336 466.09 104.912 466.09 105.664V109H465.034V102.568H465.886L466.042 103.444H466.102C466.246 103.22 466.422 103.036 466.63 102.892C466.846 102.74 467.082 102.628 467.338 102.556C467.594 102.484 467.858 102.448 468.13 102.448ZM474.6 108.256C474.76 108.256 474.924 108.244 475.092 108.22C475.26 108.188 475.396 108.156 475.5 108.124V108.928C475.388 108.984 475.228 109.028 475.02 109.06C474.812 109.1 474.612 109.12 474.42 109.12C474.084 109.12 473.772 109.064 473.484 108.952C473.204 108.832 472.976 108.628 472.8 108.34C472.624 108.052 472.536 107.648 472.536 107.128V103.384H471.624V102.88L472.548 102.46L472.968 101.092H473.592V102.568H475.452V103.384H473.592V107.104C473.592 107.496 473.684 107.788 473.868 107.98C474.06 108.164 474.304 108.256 474.6 108.256Z" fill="#545454"/>
<path d="M247.991 86.9665C280.289 90.007 359.421 89.0347 417.559 60.8219" stroke="#91AA9D" stroke-width="2"/>
<path d="M37 28.5V39.5C37 40.6046 37.8954 41.5 39 41.5H55C56.1046 41.5 57 40.6046 57 39.5V28.5C57 27.3954 56.1046 26.5 55 26.5H39C37.8954 26.5 37 27.3954 37 28.5Z" stroke="#545454" stroke-width="4"/>
<path d="M37 55.5V66.5C37 67.6046 37.8954 68.5 39 68.5H55C56.1046 68.5 57 67.6046 57 66.5V55.5C57 54.3954 56.1046 53.5 55 53.5H39C37.8954 53.5 37 54.3954 37 55.5Z" stroke="#545454" stroke-width="4"/>
<path d="M37 81.5V92.5C37 93.6046 37.8954 94.5 39 94.5H55C56.1046 94.5 57 93.6046 57 92.5V81.5C57 80.3954 56.1046 79.5 55 79.5H39C37.8954 79.5 37 80.3954 37 81.5Z" stroke="#545454" stroke-width="4"/>
<path d="M6 55.5V66.5C6 67.6046 6.89543 68.5 8 68.5H24C25.1046 68.5 26 67.6046 26 66.5V55.5C26 54.3954 25.1046 53.5 24 53.5H8C6.89543 53.5 6 54.3954 6 55.5Z" stroke="#545454" stroke-width="4"/>
<path d="M6 81.5V92.5C6 93.6046 6.89543 94.5 8 94.5H24C25.1046 94.5 26 93.6046 26 92.5V81.5C26 80.3954 25.1046 79.5 24 79.5H8C6.89543 79.5 6 80.3954 6 81.5Z" stroke="#545454" stroke-width="4"/>
<path d="M69.5 55.5V66.5C69.5 67.6046 70.3954 68.5 71.5 68.5H87.5C88.6046 68.5 89.5 67.6046 89.5 66.5V55.5C89.5 54.3954 88.6046 53.5 87.5 53.5H71.5C70.3954 53.5 69.5 54.3954 69.5 55.5Z" stroke="#545454" stroke-width="4"/>
<path d="M69.5 81.5V92.5C69.5 93.6046 70.3954 94.5 71.5 94.5H87.5C88.6046 94.5 89.5 93.6046 89.5 92.5V81.5C89.5 80.3954 88.6046 79.5 87.5 79.5H71.5C70.3954 79.5 69.5 80.3954 69.5 81.5Z" stroke="#545454" stroke-width="4"/>
<path d="M101 28.5V39.5C101 40.6046 101.895 41.5 103 41.5H119C120.105 41.5 121 40.6046 121 39.5V28.5C121 27.3954 120.105 26.5 119 26.5H103C101.895 26.5 101 27.3954 101 28.5Z" stroke="#545454" stroke-width="4"/>
<path d="M101 55.5V66.5C101 67.6046 101.895 68.5 103 68.5H119C120.105 68.5 121 67.6046 121 66.5V55.5C121 54.3954 120.105 53.5 119 53.5H103C101.895 53.5 101 54.3954 101 55.5Z" stroke="#545454" stroke-width="4"/>
<path d="M101 81.5V92.5C101 93.6046 101.895 94.5 103 94.5H119C120.105 94.5 121 93.6046 121 92.5V81.5C121 80.3954 120.105 79.5 119 79.5H103C101.895 79.5 101 80.3954 101 81.5Z" stroke="#545454" stroke-width="4"/>
<line y1="107.5" x2="127" y2="107.5" stroke="#545454" stroke-width="4"/>
</svg>
