<svg class="w-full h-auto" viewBox="0 0 127 110" fill="none" xmlns="http://www.w3.org/2000/svg">
<path d="M37 28.5V39.5C37 40.6046 37.8954 41.5 39 41.5H55C56.1046 41.5 57 40.6046 57 39.5V28.5C57 27.3954 56.1046 26.5 55 26.5H39C37.8954 26.5 37 27.3954 37 28.5Z" stroke="#545454" stroke-width="4"/>
<path d="M37 55.5V66.5C37 67.6046 37.8954 68.5 39 68.5H55C56.1046 68.5 57 67.6046 57 66.5V55.5C57 54.3954 56.1046 53.5 55 53.5H39C37.8954 53.5 37 54.3954 37 55.5Z" stroke="#545454" stroke-width="4"/>
<path d="M37 81.5V92.5C37 93.6046 37.8954 94.5 39 94.5H55C56.1046 94.5 57 93.6046 57 92.5V81.5C57 80.3954 56.1046 79.5 55 79.5H39C37.8954 79.5 37 80.3954 37 81.5Z" stroke="#545454" stroke-width="4"/>
<path d="M6 55.5V66.5C6 67.6046 6.89543 68.5 8 68.5H24C25.1046 68.5 26 67.6046 26 66.5V55.5C26 54.3954 25.1046 53.5 24 53.5H8C6.89543 53.5 6 54.3954 6 55.5Z" stroke="#545454" stroke-width="4"/>
<path d="M6 81.5V92.5C6 93.6046 6.89543 94.5 8 94.5H24C25.1046 94.5 26 93.6046 26 92.5V81.5C26 80.3954 25.1046 79.5 24 79.5H8C6.89543 79.5 6 80.3954 6 81.5Z" stroke="#545454" stroke-width="4"/>
<path d="M69.5 55.5V66.5C69.5 67.6046 70.3954 68.5 71.5 68.5H87.5C88.6046 68.5 89.5 67.6046 89.5 66.5V55.5C89.5 54.3954 88.6046 53.5 87.5 53.5H71.5C70.3954 53.5 69.5 54.3954 69.5 55.5Z" stroke="#545454" stroke-width="4"/>
<path d="M69.5 81.5V92.5C69.5 93.6046 70.3954 94.5 71.5 94.5H87.5C88.6046 94.5 89.5 93.6046 89.5 92.5V81.5C89.5 80.3954 88.6046 79.5 87.5 79.5H71.5C70.3954 79.5 69.5 80.3954 69.5 81.5Z" stroke="#545454" stroke-width="4"/>
<path d="M101 28.5V39.5C101 40.6046 101.895 41.5 103 41.5H119C120.105 41.5 121 40.6046 121 39.5V28.5C121 27.3954 120.105 26.5 119 26.5H103C101.895 26.5 101 27.3954 101 28.5Z" stroke="#545454" stroke-width="4"/>
<path d="M101 55.5V66.5C101 67.6046 101.895 68.5 103 68.5H119C120.105 68.5 121 67.6046 121 66.5V55.5C121 54.3954 120.105 53.5 119 53.5H103C101.895 53.5 101 54.3954 101 55.5Z" stroke="#545454" stroke-width="4"/>
<path d="M101 81.5V92.5C101 93.6046 101.895 94.5 103 94.5H119C120.105 94.5 121 93.6046 121 92.5V81.5C121 80.3954 120.105 79.5 119 79.5H103C101.895 79.5 101 80.3954 101 81.5Z" stroke="#545454" stroke-width="4"/>
<line y1="107.5" x2="127" y2="107.5" stroke="#545454" stroke-width="4"/>
<path d="M37 3.5V14.5C37 15.6046 37.8954 16.5 39 16.5H55C56.1046 16.5 57 15.6046 57 14.5V3.5C57 2.39543 56.1046 1.5 55 1.5H39C37.8954 1.5 37 2.39543 37 3.5Z" stroke="#545454" stroke-width="4"></path>
</svg>