<svg width="368" height="206" viewBox="0 0 368 206" fill="none" xmlns="http://www.w3.org/2000/svg">
<path d="M11.36 146.448C9.632 146.448 8.128 146.139 6.848 145.52C5.568 144.901 4.50133 144.048 3.648 142.96C2.79467 141.872 2.15467 140.613 1.728 139.184C1.32267 137.733 1.12 136.187 1.12 134.544C1.12 132.901 1.32267 131.355 1.728 129.904C2.15467 128.453 2.79467 127.184 3.648 126.096C4.50133 124.987 5.57867 124.123 6.88 123.504C8.18133 122.885 9.70667 122.576 11.456 122.576C12.864 122.576 14.112 122.779 15.2 123.184C16.288 123.568 17.1307 124.112 17.728 124.816C18.3467 125.52 18.656 126.341 18.656 127.28C18.656 128.389 18.3253 129.296 17.664 130C17.024 130.683 16.2133 131.024 15.232 131.024C14.784 131.024 14.56 130.896 14.56 130.64C14.56 130.533 14.6347 130.373 14.784 130.16C14.9547 129.925 15.1147 129.616 15.264 129.232C15.4347 128.827 15.52 128.325 15.52 127.728C15.52 126.725 15.1467 125.915 14.4 125.296C13.6533 124.677 12.672 124.368 11.456 124.368C10.1973 124.368 9.14133 124.667 8.288 125.264C7.43467 125.861 6.74133 126.661 6.208 127.664C5.696 128.645 5.32267 129.744 5.088 130.96C4.85333 132.155 4.736 133.349 4.736 134.544C4.736 136.315 5.01333 137.936 5.568 139.408C6.12267 140.88 6.912 142.053 7.936 142.928C8.98133 143.803 10.2187 144.24 11.648 144.24C13.056 144.24 14.2613 143.984 15.264 143.472C16.2667 142.939 17.0667 142.235 17.664 141.36C17.728 141.275 17.8027 141.232 17.888 141.232C18.08 141.232 18.2933 141.328 18.528 141.52C18.784 141.712 18.912 141.915 18.912 142.128C18.912 142.192 18.88 142.277 18.816 142.384C17.984 143.621 16.96 144.613 15.744 145.36C14.528 146.085 13.0667 146.448 11.36 146.448ZM26.918 146.448C25.9153 146.448 24.9767 146.16 24.102 145.584C23.2273 145.008 22.5233 144.144 21.99 142.992C21.4567 141.84 21.19 140.4 21.19 138.672C21.19 136.816 21.5207 135.216 22.182 133.872C22.8647 132.528 23.8247 131.493 25.062 130.768C26.3207 130.043 27.7927 129.68 29.478 129.68C30.4807 129.68 31.526 129.797 32.614 130.032C33.702 130.245 34.79 130.395 35.878 130.48L36.23 130.896L35.846 131.472C35.718 131.664 35.6113 131.856 35.526 132.048C35.462 132.219 35.43 132.443 35.43 132.72V143.184C35.43 143.845 35.75 144.176 36.39 144.176C36.9233 144.176 37.4567 143.984 37.99 143.6L38.598 144.432C38.0433 145.051 37.446 145.541 36.806 145.904C36.1873 146.267 35.6007 146.448 35.046 146.448C34.1713 146.448 33.542 146.181 33.158 145.648C32.774 145.115 32.582 144.251 32.582 143.056C31.6647 144.357 30.7367 145.253 29.798 145.744C28.8807 146.213 27.9207 146.448 26.918 146.448ZM28.198 143.984C29.0087 143.984 29.7873 143.749 30.534 143.28C31.302 142.811 31.9847 142.075 32.582 141.072V132.432C31.6007 131.771 30.5553 131.44 29.446 131.44C27.8887 131.44 26.6833 132.027 25.83 133.2C24.9767 134.352 24.55 135.973 24.55 138.064C24.55 139.515 24.7207 140.677 25.062 141.552C25.4033 142.405 25.8513 143.024 26.406 143.408C26.982 143.792 27.5793 143.984 28.198 143.984ZM44.6625 146.448C43.7878 146.448 43.1585 146.181 42.7745 145.648C42.3905 145.115 42.1985 144.251 42.1985 143.056V124.432C42.1985 123.963 41.9852 123.728 41.5585 123.728H40.1505L39.8625 122.896C40.4812 122.341 41.1852 121.883 41.9745 121.52C42.7852 121.157 43.4892 120.976 44.0865 120.976C44.3852 120.976 44.6198 121.072 44.7905 121.264C44.9825 121.456 45.0785 121.701 45.0785 122V143.184C45.0785 143.909 45.3985 144.272 46.0385 144.272C46.5718 144.272 47.1052 144.048 47.6385 143.6L48.2465 144.432C47.6918 145.051 47.0945 145.541 46.4545 145.904C45.8145 146.267 45.2172 146.448 44.6625 146.448ZM57.8708 146.448C56.3774 146.448 55.0441 146.085 53.8708 145.36C52.7188 144.635 51.8121 143.643 51.1508 142.384C50.4894 141.125 50.1588 139.696 50.1588 138.096C50.1588 136.389 50.4788 134.907 51.1188 133.648C51.7588 132.389 52.6548 131.419 53.8068 130.736C54.9801 130.032 56.3454 129.68 57.9028 129.68C59.5454 129.68 60.8894 130.085 61.9348 130.896C63.0014 131.685 63.5348 132.709 63.5348 133.968C63.5348 134.885 63.2361 135.643 62.6388 136.24C62.0628 136.816 61.3161 137.104 60.3988 137.104C59.9934 137.104 59.7908 136.987 59.7908 136.752C59.7908 136.645 59.8548 136.507 59.9828 136.336C60.1108 136.165 60.2388 135.909 60.3668 135.568C60.4948 135.205 60.5588 134.725 60.5588 134.128C60.5588 133.275 60.2814 132.603 59.7268 132.112C59.1934 131.6 58.4681 131.344 57.5508 131.344C56.3348 131.344 55.3534 131.941 54.6068 133.136C53.8601 134.331 53.4868 135.899 53.4868 137.84C53.4868 139.824 53.9241 141.403 54.7988 142.576C55.6948 143.728 56.9001 144.304 58.4148 144.304C59.9508 144.304 61.3588 143.771 62.6388 142.704C62.7028 142.64 62.7988 142.608 62.9268 142.608C63.0974 142.608 63.2681 142.704 63.4388 142.896C63.6308 143.088 63.7268 143.291 63.7268 143.504C63.7268 143.632 63.6948 143.728 63.6308 143.792C62.8841 144.645 62.0094 145.307 61.0068 145.776C60.0254 146.224 58.9801 146.448 57.8708 146.448ZM73.192 146.448C71.656 146.448 70.4507 145.989 69.576 145.072C68.7227 144.133 68.296 142.821 68.296 141.136V133.136C68.296 132.667 68.0827 132.432 67.656 132.432H66.248L65.96 131.6C66.5147 131.045 67.1867 130.587 67.976 130.224C68.7867 129.861 69.5227 129.68 70.184 129.68C70.4827 129.68 70.728 129.776 70.92 129.968C71.112 130.16 71.208 130.405 71.208 130.704V140.4C71.208 143.003 72.232 144.304 74.28 144.304C75.7093 144.304 76.8187 143.685 77.608 142.448C78.4187 141.211 78.824 139.504 78.824 137.328C78.824 136.283 78.792 135.387 78.728 134.64C78.6853 133.893 78.5787 133.243 78.408 132.688C78.2373 132.112 77.96 131.579 77.576 131.088L77.192 130.576L77.576 130.096L81.48 129.68V143.184C81.48 143.845 81.7893 144.176 82.408 144.176C82.8987 144.176 83.4213 143.984 83.976 143.6L84.584 144.432C84.0933 145.029 83.5173 145.52 82.856 145.904C82.216 146.267 81.6187 146.448 81.064 146.448C79.4213 146.448 78.6 145.424 78.6 143.376C78.1307 144.315 77.4053 145.061 76.424 145.616C75.464 146.171 74.3867 146.448 73.192 146.448ZM90.8188 146.448C89.9441 146.448 89.3148 146.181 88.9308 145.648C88.5468 145.115 88.3548 144.251 88.3548 143.056V124.432C88.3548 123.963 88.1414 123.728 87.7148 123.728H86.3068L86.0188 122.896C86.6374 122.341 87.3414 121.883 88.1308 121.52C88.9414 121.157 89.6454 120.976 90.2428 120.976C90.5414 120.976 90.7761 121.072 90.9468 121.264C91.1388 121.456 91.2348 121.701 91.2348 122V143.184C91.2348 143.909 91.5548 144.272 92.1948 144.272C92.7281 144.272 93.2614 144.048 93.7948 143.6L94.4028 144.432C93.8481 145.051 93.2508 145.541 92.6108 145.904C91.9708 146.267 91.3734 146.448 90.8188 146.448Z" fill="#2980B9"/>
<path d="M120.616 146.448C119.506 146.448 118.632 146.128 117.992 145.488C117.352 144.827 116.754 143.899 116.2 142.704L113.768 137.552C113.554 137.083 113.288 136.752 112.968 136.56C112.669 136.368 112.21 136.165 111.592 135.952C111.186 135.803 110.984 135.557 110.984 135.216C110.984 135.024 111.026 134.853 111.112 134.704C111.197 134.533 111.325 134.448 111.496 134.448C111.624 134.448 111.794 134.491 112.008 134.576C112.242 134.64 112.594 134.672 113.064 134.672C114.706 134.672 115.965 134.213 116.84 133.296C117.714 132.379 118.152 131.173 118.152 129.68C118.152 128.187 117.693 126.928 116.776 125.904C115.858 124.88 114.504 124.368 112.712 124.368C111.986 124.368 111.453 124.453 111.112 124.624C110.77 124.773 110.546 124.965 110.44 125.2C110.333 125.435 110.28 125.648 110.28 125.84V139.568C110.28 140.869 110.386 141.915 110.6 142.704C110.834 143.472 111.208 144.208 111.72 144.912L112.135 145.488L111.72 146H104.712L104.328 144.912L105.064 144.72C105.874 144.507 106.418 144.208 106.696 143.824C106.973 143.419 107.112 142.725 107.112 141.744V125.936C107.112 125.424 106.877 125.168 106.408 125.168H104.552L104.168 123.984C104.722 123.771 105.426 123.557 106.28 123.344C107.154 123.131 108.093 122.949 109.096 122.8C110.12 122.651 111.133 122.576 112.135 122.576C114.354 122.576 116.146 122.896 117.512 123.536C118.898 124.155 119.901 124.997 120.52 126.064C121.16 127.131 121.48 128.304 121.48 129.584C121.48 131.077 121.053 132.432 120.2 133.648C119.368 134.843 118.066 135.653 116.296 136.08C116.594 136.272 116.84 136.496 117.032 136.752C117.224 137.008 117.405 137.307 117.576 137.648L120.552 143.696C120.701 143.973 120.872 144.208 121.064 144.4C121.256 144.592 121.49 144.688 121.767 144.688C122.173 144.688 122.589 144.539 123.016 144.24L123.56 145.168C123.09 145.616 122.6 145.936 122.088 146.128C121.597 146.341 121.106 146.448 120.616 146.448ZM132.956 146.448C131.463 146.448 130.162 146.107 129.052 145.424C127.964 144.741 127.111 143.792 126.492 142.576C125.895 141.339 125.596 139.899 125.596 138.256C125.596 136.528 125.938 135.024 126.62 133.744C127.303 132.464 128.263 131.472 129.5 130.768C130.759 130.043 132.22 129.68 133.884 129.68C135.122 129.68 136.135 129.904 136.924 130.352C137.735 130.8 138.332 131.387 138.716 132.112C139.122 132.816 139.324 133.573 139.324 134.384C139.324 135.259 139.09 136.112 138.62 136.944C138.172 137.776 137.49 138.459 136.572 138.992C135.676 139.525 134.556 139.792 133.212 139.792C132.999 139.792 132.69 139.771 132.284 139.728C131.9 139.664 131.506 139.579 131.1 139.472C130.716 139.344 130.386 139.184 130.108 138.992C129.831 138.8 129.692 138.565 129.692 138.288C129.692 138.117 129.735 137.957 129.82 137.808C129.927 137.659 130.044 137.584 130.172 137.584C130.343 137.584 130.556 137.659 130.812 137.808C131.09 137.936 131.559 138 132.22 138C133.138 138 133.895 137.829 134.492 137.488C135.09 137.125 135.538 136.667 135.836 136.112C136.135 135.536 136.284 134.949 136.284 134.352C136.284 133.563 136.028 132.859 135.516 132.24C135.004 131.6 134.247 131.28 133.244 131.28C131.879 131.28 130.812 131.877 130.044 133.072C129.276 134.267 128.892 135.995 128.892 138.256C128.892 140.133 129.287 141.616 130.076 142.704C130.887 143.792 132.071 144.336 133.628 144.336C134.524 144.336 135.367 144.187 136.156 143.888C136.946 143.589 137.66 143.131 138.3 142.512C138.386 142.427 138.482 142.384 138.588 142.384C138.759 142.384 138.94 142.491 139.132 142.704C139.324 142.896 139.42 143.099 139.42 143.312C139.42 143.419 139.378 143.515 139.292 143.6C137.65 145.499 135.538 146.448 132.956 146.448ZM157.478 146.448C156.603 146.448 155.974 146.181 155.59 145.648C155.206 145.115 155.014 144.251 155.014 143.056V135.44C155.014 133.264 154.096 132.176 152.262 132.176C151.344 132.176 150.534 132.539 149.83 133.264C149.147 133.989 148.603 135.013 148.198 136.336C147.814 137.637 147.622 139.152 147.622 140.88C147.622 141.883 147.696 142.683 147.846 143.28C147.995 143.877 148.262 144.453 148.646 145.008L149.03 145.52L148.646 146H143.046L142.694 145.008L143.366 144.848C143.92 144.72 144.283 144.485 144.454 144.144C144.624 143.803 144.71 143.237 144.71 142.448V133.456C144.71 132.987 144.496 132.752 144.07 132.752H142.662L142.374 131.92C142.992 131.365 143.696 130.907 144.486 130.544C145.296 130.181 146 130 146.598 130C146.896 130 147.142 130.096 147.334 130.288C147.526 130.48 147.622 130.725 147.622 131.024V134.448C147.984 133.509 148.475 132.688 149.094 131.984C149.734 131.259 150.438 130.693 151.206 130.288C151.995 129.883 152.795 129.68 153.606 129.68C155.099 129.68 156.187 130.139 156.87 131.056C157.552 131.973 157.894 133.435 157.894 135.44V143.184C157.894 143.909 158.214 144.272 158.854 144.272C159.344 144.272 159.878 144.048 160.454 143.6L161.062 144.432C160.507 145.051 159.91 145.541 159.27 145.904C158.63 146.267 158.032 146.448 157.478 146.448ZM167.608 146.448C166.733 146.448 166.05 146.181 165.56 145.648C165.09 145.093 164.856 144.336 164.856 143.376V132.112H162.04C162.04 131.536 162.082 131.163 162.168 130.992C162.253 130.821 162.466 130.693 162.808 130.608C163.64 130.395 164.28 130.085 164.728 129.68C165.197 129.253 165.538 128.773 165.752 128.24C165.986 127.707 166.157 127.141 166.264 126.544C166.328 126.203 166.434 125.989 166.584 125.904C166.754 125.819 167.149 125.776 167.768 125.776V130.096H171.928C171.928 131.056 171.682 131.728 171.192 132.112H167.768V142.416C167.768 143.077 167.864 143.547 168.056 143.824C168.248 144.101 168.557 144.24 168.984 144.24C169.624 144.24 170.349 143.899 171.16 143.216L171.768 144.048C171.213 144.773 170.552 145.36 169.784 145.808C169.016 146.235 168.29 146.448 167.608 146.448ZM179.762 146.448C178.759 146.448 177.82 146.16 176.946 145.584C176.071 145.008 175.367 144.144 174.834 142.992C174.3 141.84 174.034 140.4 174.034 138.672C174.034 136.816 174.364 135.216 175.026 133.872C175.708 132.528 176.668 131.493 177.906 130.768C179.164 130.043 180.636 129.68 182.322 129.68C183.324 129.68 184.37 129.797 185.458 130.032C186.546 130.245 187.634 130.395 188.722 130.48L189.074 130.896L188.69 131.472C188.562 131.664 188.455 131.856 188.37 132.048C188.306 132.219 188.274 132.443 188.274 132.72V143.184C188.274 143.845 188.594 144.176 189.234 144.176C189.767 144.176 190.3 143.984 190.834 143.6L191.442 144.432C190.887 145.051 190.29 145.541 189.65 145.904C189.031 146.267 188.444 146.448 187.89 146.448C187.015 146.448 186.386 146.181 186.002 145.648C185.618 145.115 185.426 144.251 185.426 143.056C184.508 144.357 183.58 145.253 182.642 145.744C181.724 146.213 180.764 146.448 179.762 146.448ZM181.042 143.984C181.852 143.984 182.631 143.749 183.378 143.28C184.146 142.811 184.828 142.075 185.426 141.072V132.432C184.444 131.771 183.399 131.44 182.29 131.44C180.732 131.44 179.527 132.027 178.674 133.2C177.82 134.352 177.394 135.973 177.394 138.064C177.394 139.515 177.564 140.677 177.906 141.552C178.247 142.405 178.695 143.024 179.25 143.408C179.826 143.792 180.423 143.984 181.042 143.984ZM201.026 146.448C199.789 146.448 198.637 146.267 197.57 145.904C196.504 145.541 195.661 145.051 195.042 144.432V124.432C195.042 123.963 194.829 123.728 194.402 123.728H192.994L192.706 122.896C193.325 122.341 194.029 121.883 194.818 121.52C195.629 121.157 196.333 120.976 196.93 120.976C197.229 120.976 197.474 121.072 197.666 121.264C197.858 121.456 197.954 121.701 197.954 122V143.632C198.445 143.973 198.957 144.229 199.49 144.4C200.024 144.571 200.632 144.656 201.314 144.656C202.744 144.656 203.874 144.059 204.706 142.864C205.538 141.669 205.954 140.069 205.954 138.064C205.954 136.763 205.762 135.621 205.378 134.64C205.016 133.637 204.504 132.859 203.842 132.304C203.181 131.749 202.413 131.472 201.538 131.472C200.877 131.472 200.408 131.547 200.13 131.696C199.874 131.824 199.661 131.888 199.49 131.888C199.362 131.888 199.245 131.813 199.138 131.664C199.053 131.515 199.01 131.355 199.01 131.184C199.01 130.928 199.106 130.736 199.298 130.608C199.832 130.267 200.365 130.032 200.898 129.904C201.453 129.755 201.997 129.68 202.53 129.68C203.874 129.68 205.058 130.011 206.082 130.672C207.106 131.333 207.906 132.251 208.482 133.424C209.058 134.576 209.346 135.909 209.346 137.424C209.346 139.152 208.984 140.699 208.258 142.064C207.533 143.408 206.541 144.475 205.282 145.264C204.045 146.053 202.626 146.448 201.026 146.448ZM216.701 146.448C215.827 146.448 215.197 146.181 214.813 145.648C214.429 145.115 214.237 144.251 214.237 143.056V133.136C214.237 132.667 214.024 132.432 213.597 132.432H212.189L211.901 131.6C212.52 131.045 213.224 130.587 214.013 130.224C214.824 129.861 215.528 129.68 216.125 129.68C216.424 129.68 216.659 129.776 216.829 129.968C217.021 130.16 217.117 130.405 217.117 130.704V143.184C217.117 143.909 217.437 144.272 218.077 144.272C218.611 144.272 219.144 144.048 219.677 143.6L220.285 144.432C219.731 145.051 219.133 145.541 218.493 145.904C217.853 146.267 217.256 146.448 216.701 146.448ZM215.741 127.024C215.507 127.024 215.229 126.907 214.909 126.672C214.611 126.437 214.344 126.16 214.109 125.84C213.896 125.52 213.789 125.221 213.789 124.944C213.789 124.667 213.896 124.368 214.109 124.048C214.344 123.707 214.611 123.419 214.909 123.184C215.208 122.949 215.485 122.832 215.741 122.832C216.019 122.832 216.307 122.949 216.605 123.184C216.925 123.419 217.192 123.707 217.405 124.048C217.64 124.368 217.757 124.667 217.757 124.944C217.757 125.221 217.64 125.52 217.405 125.84C217.192 126.16 216.925 126.437 216.605 126.672C216.307 126.907 216.019 127.024 215.741 127.024ZM226.35 146.448C225.475 146.448 224.846 146.181 224.462 145.648C224.078 145.115 223.886 144.251 223.886 143.056V124.432C223.886 123.963 223.673 123.728 223.246 123.728H221.838L221.55 122.896C222.169 122.341 222.873 121.883 223.662 121.52C224.473 121.157 225.177 120.976 225.774 120.976C226.073 120.976 226.307 121.072 226.478 121.264C226.67 121.456 226.766 121.701 226.766 122V143.184C226.766 143.909 227.086 144.272 227.726 144.272C228.259 144.272 228.793 144.048 229.326 143.6L229.934 144.432C229.379 145.051 228.782 145.541 228.142 145.904C227.502 146.267 226.905 146.448 226.35 146.448ZM236.326 146.448C235.452 146.448 234.822 146.181 234.438 145.648C234.054 145.115 233.862 144.251 233.862 143.056V133.136C233.862 132.667 233.649 132.432 233.222 132.432H231.814L231.526 131.6C232.145 131.045 232.849 130.587 233.638 130.224C234.449 129.861 235.153 129.68 235.75 129.68C236.049 129.68 236.284 129.776 236.454 129.968C236.646 130.16 236.742 130.405 236.742 130.704V143.184C236.742 143.909 237.062 144.272 237.702 144.272C238.236 144.272 238.769 144.048 239.302 143.6L239.91 144.432C239.356 145.051 238.758 145.541 238.118 145.904C237.478 146.267 236.881 146.448 236.326 146.448ZM235.366 127.024C235.132 127.024 234.854 126.907 234.534 126.672C234.236 126.437 233.969 126.16 233.734 125.84C233.521 125.52 233.414 125.221 233.414 124.944C233.414 124.667 233.521 124.368 233.734 124.048C233.969 123.707 234.236 123.419 234.534 123.184C234.833 122.949 235.11 122.832 235.366 122.832C235.644 122.832 235.932 122.949 236.23 123.184C236.55 123.419 236.817 123.707 237.03 124.048C237.265 124.368 237.382 124.667 237.382 124.944C237.382 125.221 237.265 125.52 237.03 125.84C236.817 126.16 236.55 126.437 236.23 126.672C235.932 126.907 235.644 127.024 235.366 127.024ZM246.295 146.448C245.42 146.448 244.738 146.181 244.247 145.648C243.778 145.093 243.543 144.336 243.543 143.376V132.112H240.727C240.727 131.536 240.77 131.163 240.855 130.992C240.94 130.821 241.154 130.693 241.495 130.608C242.327 130.395 242.967 130.085 243.415 129.68C243.884 129.253 244.226 128.773 244.439 128.24C244.674 127.707 244.844 127.141 244.951 126.544C245.015 126.203 245.122 125.989 245.271 125.904C245.442 125.819 245.836 125.776 246.455 125.776V130.096H250.615C250.615 131.056 250.37 131.728 249.879 132.112H246.455V142.416C246.455 143.077 246.551 143.547 246.743 143.824C246.935 144.101 247.244 144.24 247.671 144.24C248.311 144.24 249.036 143.899 249.847 143.216L250.455 144.048C249.9 144.773 249.239 145.36 248.471 145.808C247.703 146.235 246.978 146.448 246.295 146.448ZM260.081 146.448C258.588 146.448 257.287 146.107 256.177 145.424C255.089 144.741 254.236 143.792 253.617 142.576C253.02 141.339 252.721 139.899 252.721 138.256C252.721 136.528 253.063 135.024 253.745 133.744C254.428 132.464 255.388 131.472 256.625 130.768C257.884 130.043 259.345 129.68 261.009 129.68C262.247 129.68 263.26 129.904 264.049 130.352C264.86 130.8 265.457 131.387 265.841 132.112C266.247 132.816 266.449 133.573 266.449 134.384C266.449 135.259 266.215 136.112 265.745 136.944C265.297 137.776 264.615 138.459 263.697 138.992C262.801 139.525 261.681 139.792 260.337 139.792C260.124 139.792 259.815 139.771 259.409 139.728C259.025 139.664 258.631 139.579 258.225 139.472C257.841 139.344 257.511 139.184 257.233 138.992C256.956 138.8 256.817 138.565 256.817 138.288C256.817 138.117 256.86 137.957 256.945 137.808C257.052 137.659 257.169 137.584 257.297 137.584C257.468 137.584 257.681 137.659 257.937 137.808C258.215 137.936 258.684 138 259.345 138C260.263 138 261.02 137.829 261.617 137.488C262.215 137.125 262.663 136.667 262.961 136.112C263.26 135.536 263.409 134.949 263.409 134.352C263.409 133.563 263.153 132.859 262.641 132.24C262.129 131.6 261.372 131.28 260.369 131.28C259.004 131.28 257.937 131.877 257.169 133.072C256.401 134.267 256.017 135.995 256.017 138.256C256.017 140.133 256.412 141.616 257.201 142.704C258.012 143.792 259.196 144.336 260.753 144.336C261.649 144.336 262.492 144.187 263.281 143.888C264.071 143.589 264.785 143.131 265.425 142.512C265.511 142.427 265.607 142.384 265.713 142.384C265.884 142.384 266.065 142.491 266.257 142.704C266.449 142.896 266.545 143.099 266.545 143.312C266.545 143.419 266.503 143.515 266.417 143.6C264.775 145.499 262.663 146.448 260.081 146.448ZM257.521 127.792L256.593 126.672L261.585 121.68C261.991 121.872 262.311 122.139 262.545 122.48C262.801 122.821 262.929 123.227 262.929 123.696C262.929 124.165 262.791 124.592 262.513 124.976C262.257 125.339 261.799 125.68 261.137 126L257.521 127.792Z" fill="#96CA2D"/>
<path d="M278.695 146L278.311 144.912L279.047 144.72C279.858 144.507 280.402 144.208 280.679 143.824C280.957 143.419 281.095 142.725 281.095 141.744V127.28C281.095 126.277 280.957 125.584 280.679 125.2C280.402 124.816 279.858 124.517 279.047 124.304L278.311 124.112L278.695 123.024H285.703L286.119 123.536L285.703 124.112C285.191 124.837 284.818 125.584 284.583 126.352C284.37 127.12 284.263 128.155 284.263 129.456V141.968C284.263 142.907 284.391 143.557 284.647 143.92C284.925 144.261 285.447 144.549 286.215 144.784L286.887 144.976L286.535 146H278.695ZM314.201 146.448C313.326 146.448 312.697 146.181 312.313 145.648C311.929 145.115 311.737 144.251 311.737 143.056V135.44C311.737 133.264 310.947 132.176 309.369 132.176C308.473 132.176 307.683 132.528 307.001 133.232C306.318 133.915 305.774 134.885 305.369 136.144C304.985 137.381 304.771 138.832 304.729 140.496V140.88C304.729 141.904 304.814 142.757 304.985 143.44C305.155 144.101 305.539 144.795 306.137 145.52L305.753 146H301.849V135.44C301.849 133.264 301.059 132.176 299.481 132.176C298.563 132.176 297.753 132.539 297.049 133.264C296.366 133.989 295.822 135.013 295.417 136.336C295.033 137.637 294.841 139.152 294.841 140.88C294.841 141.883 294.915 142.683 295.065 143.28C295.214 143.877 295.481 144.453 295.865 145.008L296.249 145.52L295.865 146H290.265L289.913 145.008L290.585 144.848C291.139 144.72 291.502 144.485 291.673 144.144C291.843 143.803 291.929 143.237 291.929 142.448V133.456C291.929 132.987 291.715 132.752 291.289 132.752H289.881L289.593 131.92C290.211 131.365 290.915 130.907 291.705 130.544C292.515 130.181 293.219 130 293.817 130C294.115 130 294.361 130.096 294.553 130.288C294.745 130.48 294.841 130.725 294.841 131.024V134.448C295.203 133.509 295.683 132.688 296.281 131.984C296.899 131.259 297.582 130.693 298.329 130.288C299.097 129.883 299.865 129.68 300.633 129.68C301.934 129.68 302.915 130.064 303.577 130.832C304.238 131.6 304.622 132.805 304.729 134.448C305.091 133.509 305.571 132.688 306.169 131.984C306.787 131.259 307.47 130.693 308.217 130.288C308.985 129.883 309.753 129.68 310.521 129.68C311.95 129.68 312.985 130.139 313.625 131.056C314.286 131.973 314.617 133.435 314.617 135.44V143.184C314.617 143.909 314.937 144.272 315.577 144.272C316.067 144.272 316.601 144.048 317.177 143.6L317.785 144.432C317.23 145.051 316.633 145.541 315.993 145.904C315.353 146.267 314.755 146.448 314.201 146.448ZM344.326 146.448C343.451 146.448 342.822 146.181 342.438 145.648C342.054 145.115 341.862 144.251 341.862 143.056V135.44C341.862 133.264 341.072 132.176 339.494 132.176C338.598 132.176 337.808 132.528 337.126 133.232C336.443 133.915 335.899 134.885 335.494 136.144C335.11 137.381 334.896 138.832 334.854 140.496V140.88C334.854 141.904 334.939 142.757 335.11 143.44C335.28 144.101 335.664 144.795 336.262 145.52L335.878 146H331.974V135.44C331.974 133.264 331.184 132.176 329.606 132.176C328.688 132.176 327.878 132.539 327.174 133.264C326.491 133.989 325.947 135.013 325.542 136.336C325.158 137.637 324.966 139.152 324.966 140.88C324.966 141.883 325.04 142.683 325.19 143.28C325.339 143.877 325.606 144.453 325.99 145.008L326.374 145.52L325.99 146H320.39L320.038 145.008L320.71 144.848C321.264 144.72 321.627 144.485 321.798 144.144C321.968 143.803 322.054 143.237 322.054 142.448V133.456C322.054 132.987 321.84 132.752 321.414 132.752H320.006L319.718 131.92C320.336 131.365 321.04 130.907 321.83 130.544C322.64 130.181 323.344 130 323.942 130C324.24 130 324.486 130.096 324.678 130.288C324.87 130.48 324.966 130.725 324.966 131.024V134.448C325.328 133.509 325.808 132.688 326.406 131.984C327.024 131.259 327.707 130.693 328.454 130.288C329.222 129.883 329.99 129.68 330.758 129.68C332.059 129.68 333.04 130.064 333.702 130.832C334.363 131.6 334.747 132.805 334.854 134.448C335.216 133.509 335.696 132.688 336.294 131.984C336.912 131.259 337.595 130.693 338.342 130.288C339.11 129.883 339.878 129.68 340.646 129.68C342.075 129.68 343.11 130.139 343.75 131.056C344.411 131.973 344.742 133.435 344.742 135.44V143.184C344.742 143.909 345.062 144.272 345.702 144.272C346.192 144.272 346.726 144.048 347.302 143.6L347.91 144.432C347.355 145.051 346.758 145.541 346.118 145.904C345.478 146.267 344.88 146.448 344.326 146.448ZM357.811 146.448C356.211 146.448 354.824 146.107 353.651 145.424C352.499 144.741 351.603 143.771 350.963 142.512C350.323 141.253 350.003 139.771 350.003 138.064C350.003 136.336 350.323 134.853 350.963 133.616C351.603 132.357 352.499 131.387 353.651 130.704C354.824 130.021 356.211 129.68 357.811 129.68C359.411 129.68 360.787 130.021 361.939 130.704C363.112 131.387 364.019 132.357 364.659 133.616C365.299 134.853 365.619 136.336 365.619 138.064C365.619 139.771 365.299 141.253 364.659 142.512C364.019 143.771 363.112 144.741 361.939 145.424C360.787 146.107 359.411 146.448 357.811 146.448ZM357.715 144.72C359.037 144.72 360.125 144.123 360.979 142.928C361.832 141.712 362.259 140.123 362.259 138.16C362.259 137.52 362.184 136.805 362.035 136.016C361.907 135.227 361.672 134.48 361.331 133.776C361.011 133.072 360.573 132.496 360.019 132.048C359.464 131.579 358.76 131.344 357.907 131.344C357.011 131.344 356.211 131.632 355.507 132.208C354.824 132.763 354.291 133.552 353.907 134.576C353.523 135.579 353.331 136.752 353.331 138.096C353.331 140.101 353.725 141.712 354.515 142.928C355.304 144.123 356.371 144.72 357.715 144.72Z" fill="#545454"/>
<path d="M41.4324 194.432L38.3724 203H37.2924L34.2324 194.432H35.3604L37.2924 199.928C37.3804 200.16 37.4564 200.384 37.5204 200.6C37.5844 200.816 37.6404 201.024 37.6884 201.224C37.7444 201.416 37.7924 201.608 37.8324 201.8C37.8724 201.608 37.9164 201.412 37.9644 201.212C38.0204 201.012 38.0804 200.804 38.1444 200.588C38.2164 200.372 38.2924 200.144 38.3724 199.904L40.2924 194.432H41.4324ZM47.8054 199.772C47.8054 200.308 47.7334 200.784 47.5894 201.2C47.4534 201.608 47.2534 201.956 46.9894 202.244C46.7334 202.532 46.4174 202.752 46.0414 202.904C45.6734 203.048 45.2614 203.12 44.8054 203.12C44.3814 203.12 43.9894 203.048 43.6294 202.904C43.2694 202.752 42.9574 202.532 42.6934 202.244C42.4294 201.956 42.2214 201.608 42.0694 201.2C41.9254 200.784 41.8534 200.308 41.8534 199.772C41.8534 199.06 41.9734 198.46 42.2134 197.972C42.4534 197.476 42.7974 197.1 43.2454 196.844C43.6934 196.58 44.2254 196.448 44.8414 196.448C45.4254 196.448 45.9374 196.58 46.3774 196.844C46.8254 197.1 47.1734 197.476 47.4214 197.972C47.6774 198.46 47.8054 199.06 47.8054 199.772ZM42.9454 199.772C42.9454 200.276 43.0094 200.716 43.1374 201.092C43.2734 201.46 43.4814 201.744 43.7614 201.944C44.0414 202.144 44.3974 202.244 44.8294 202.244C45.2614 202.244 45.6174 202.144 45.8974 201.944C46.1774 201.744 46.3814 201.46 46.5094 201.092C46.6454 200.716 46.7134 200.276 46.7134 199.772C46.7134 199.26 46.6454 198.824 46.5094 198.464C46.3734 198.104 46.1654 197.828 45.8854 197.636C45.6134 197.436 45.2574 197.336 44.8174 197.336C44.1614 197.336 43.6854 197.552 43.3894 197.984C43.0934 198.416 42.9454 199.012 42.9454 199.772ZM51.627 202.256C51.787 202.256 51.951 202.244 52.119 202.22C52.287 202.188 52.423 202.156 52.527 202.124V202.928C52.415 202.984 52.255 203.028 52.047 203.06C51.839 203.1 51.639 203.12 51.447 203.12C51.111 203.12 50.799 203.064 50.511 202.952C50.231 202.832 50.003 202.628 49.827 202.34C49.651 202.052 49.563 201.648 49.563 201.128V197.384H48.651V196.88L49.575 196.46L49.995 195.092H50.619V196.568H52.479V197.384H50.619V201.104C50.619 201.496 50.711 201.788 50.895 201.98C51.087 202.164 51.331 202.256 51.627 202.256ZM56.8149 196.448C56.9349 196.448 57.0629 196.456 57.1989 196.472C57.3429 196.48 57.4669 196.496 57.5709 196.52L57.4389 197.492C57.3349 197.468 57.2189 197.448 57.0909 197.432C56.9709 197.416 56.8549 197.408 56.7429 197.408C56.4949 197.408 56.2589 197.46 56.0349 197.564C55.8109 197.668 55.6109 197.816 55.4349 198.008C55.2589 198.192 55.1189 198.416 55.0149 198.68C54.9189 198.944 54.8709 199.24 54.8709 199.568V203H53.8149V196.568H54.6789L54.7989 197.744H54.8469C54.9829 197.504 55.1469 197.288 55.3389 197.096C55.5309 196.896 55.7509 196.74 55.9989 196.628C56.2469 196.508 56.5189 196.448 56.8149 196.448ZM61.0216 196.448C61.5736 196.448 62.0456 196.568 62.4376 196.808C62.8376 197.048 63.1416 197.388 63.3496 197.828C63.5656 198.26 63.6736 198.768 63.6736 199.352V199.988H59.2696C59.2856 200.716 59.4696 201.272 59.8216 201.656C60.1816 202.032 60.6816 202.22 61.3216 202.22C61.7296 202.22 62.0896 202.184 62.4016 202.112C62.7216 202.032 63.0496 201.92 63.3856 201.776V202.7C63.0576 202.844 62.7336 202.948 62.4136 203.012C62.0936 203.084 61.7136 203.12 61.2736 203.12C60.6656 203.12 60.1256 202.996 59.6536 202.748C59.1896 202.5 58.8256 202.132 58.5616 201.644C58.3056 201.148 58.1776 200.544 58.1776 199.832C58.1776 199.128 58.2936 198.524 58.5256 198.02C58.7656 197.516 59.0976 197.128 59.5216 196.856C59.9536 196.584 60.4536 196.448 61.0216 196.448ZM61.0096 197.312C60.5056 197.312 60.1056 197.476 59.8096 197.804C59.5216 198.124 59.3496 198.572 59.2936 199.148H62.5696C62.5696 198.78 62.5136 198.46 62.4016 198.188C62.2896 197.916 62.1176 197.704 61.8856 197.552C61.6616 197.392 61.3696 197.312 61.0096 197.312ZM70.7082 196.448C71.1322 196.448 71.5122 196.528 71.8482 196.688C72.1922 196.848 72.4842 197.092 72.7242 197.42H72.7842L72.9282 196.568H73.7682V203.108C73.7682 203.716 73.6642 204.224 73.4562 204.632C73.2482 205.048 72.9322 205.36 72.5082 205.568C72.0842 205.776 71.5442 205.88 70.8882 205.88C70.4242 205.88 69.9962 205.844 69.6042 205.772C69.2202 205.708 68.8762 205.608 68.5722 205.472V204.5C68.7802 204.604 69.0082 204.692 69.2562 204.764C69.5042 204.844 69.7722 204.904 70.0602 204.944C70.3482 204.984 70.6442 205.004 70.9482 205.004C71.5002 205.004 71.9322 204.84 72.2442 204.512C72.5642 204.192 72.7242 203.752 72.7242 203.192V202.94C72.7242 202.844 72.7282 202.708 72.7362 202.532C72.7442 202.348 72.7522 202.22 72.7602 202.148H72.7122C72.4882 202.476 72.2082 202.72 71.8722 202.88C71.5442 203.04 71.1602 203.12 70.7202 203.12C69.8882 203.12 69.2362 202.828 68.7642 202.244C68.3002 201.66 68.0682 200.844 68.0682 199.796C68.0682 199.108 68.1722 198.516 68.3802 198.02C68.5962 197.516 68.9002 197.128 69.2922 196.856C69.6842 196.584 70.1562 196.448 70.7082 196.448ZM70.8522 197.336C70.4922 197.336 70.1842 197.432 69.9282 197.624C69.6802 197.816 69.4882 198.096 69.3522 198.464C69.2242 198.832 69.1602 199.28 69.1602 199.808C69.1602 200.6 69.3042 201.208 69.5922 201.632C69.8882 202.048 70.3162 202.256 70.8762 202.256C71.2042 202.256 71.4842 202.216 71.7162 202.136C71.9482 202.048 72.1402 201.916 72.2922 201.74C72.4442 201.556 72.5562 201.324 72.6282 201.044C72.7002 200.764 72.7362 200.432 72.7362 200.048V199.796C72.7362 199.212 72.6682 198.74 72.5322 198.38C72.4042 198.02 72.2002 197.756 71.9202 197.588C71.6402 197.42 71.2842 197.336 70.8522 197.336ZM81.187 196.568V203H80.323L80.167 202.148H80.119C79.983 202.372 79.807 202.556 79.591 202.7C79.375 202.844 79.139 202.948 78.883 203.012C78.627 203.084 78.359 203.12 78.079 203.12C77.567 203.12 77.135 203.04 76.783 202.88C76.439 202.712 76.179 202.456 76.003 202.112C75.827 201.768 75.739 201.324 75.739 200.78V196.568H76.807V200.708C76.807 201.22 76.923 201.604 77.155 201.86C77.387 202.116 77.747 202.244 78.235 202.244C78.715 202.244 79.091 202.156 79.363 201.98C79.643 201.796 79.839 201.532 79.951 201.188C80.071 200.836 80.131 200.412 80.131 199.916V196.568H81.187ZM84.285 196.568V203H83.229V196.568H84.285ZM83.769 194.156C83.929 194.156 84.069 194.212 84.189 194.324C84.317 194.428 84.381 194.596 84.381 194.828C84.381 195.052 84.317 195.22 84.189 195.332C84.069 195.444 83.929 195.5 83.769 195.5C83.593 195.5 83.445 195.444 83.325 195.332C83.205 195.22 83.145 195.052 83.145 194.828C83.145 194.596 83.205 194.428 83.325 194.324C83.445 194.212 83.593 194.156 83.769 194.156ZM88.6027 203.12C87.8027 203.12 87.1627 202.844 86.6827 202.292C86.2027 201.732 85.9627 200.9 85.9627 199.796C85.9627 198.692 86.2027 197.86 86.6827 197.3C87.1707 196.732 87.8147 196.448 88.6147 196.448C88.9507 196.448 89.2427 196.492 89.4907 196.58C89.7387 196.66 89.9547 196.772 90.1387 196.916C90.3227 197.06 90.4787 197.22 90.6067 197.396H90.6787C90.6707 197.292 90.6547 197.14 90.6307 196.94C90.6147 196.732 90.6067 196.568 90.6067 196.448V193.88H91.6627V203H90.8107L90.6547 202.136H90.6067C90.4787 202.32 90.3227 202.488 90.1387 202.64C89.9547 202.784 89.7347 202.9 89.4787 202.988C89.2307 203.076 88.9387 203.12 88.6027 203.12ZM88.7707 202.244C89.4507 202.244 89.9267 202.06 90.1987 201.692C90.4787 201.316 90.6187 200.752 90.6187 200V199.808C90.6187 199.008 90.4867 198.396 90.2227 197.972C89.9587 197.54 89.4707 197.324 88.7587 197.324C88.1907 197.324 87.7627 197.552 87.4747 198.008C87.1947 198.456 87.0547 199.06 87.0547 199.82C87.0547 200.588 87.1947 201.184 87.4747 201.608C87.7627 202.032 88.1947 202.244 88.7707 202.244ZM96.1895 196.448C96.7415 196.448 97.2135 196.568 97.6055 196.808C98.0055 197.048 98.3095 197.388 98.5175 197.828C98.7335 198.26 98.8415 198.768 98.8415 199.352V199.988H94.4375C94.4535 200.716 94.6375 201.272 94.9895 201.656C95.3495 202.032 95.8495 202.22 96.4895 202.22C96.8975 202.22 97.2575 202.184 97.5695 202.112C97.8895 202.032 98.2175 201.92 98.5535 201.776V202.7C98.2255 202.844 97.9015 202.948 97.5815 203.012C97.2615 203.084 96.8815 203.12 96.4415 203.12C95.8335 203.12 95.2935 202.996 94.8215 202.748C94.3575 202.5 93.9935 202.132 93.7295 201.644C93.4735 201.148 93.3455 200.544 93.3455 199.832C93.3455 199.128 93.4615 198.524 93.6935 198.02C93.9335 197.516 94.2655 197.128 94.6895 196.856C95.1215 196.584 95.6215 196.448 96.1895 196.448ZM96.1775 197.312C95.6735 197.312 95.2735 197.476 94.9775 197.804C94.6895 198.124 94.5175 198.572 94.4615 199.148H97.7375C97.7375 198.78 97.6815 198.46 97.5695 198.188C97.4575 197.916 97.2855 197.704 97.0535 197.552C96.8295 197.392 96.5375 197.312 96.1775 197.312ZM106.656 196.448C107.448 196.448 108.084 196.724 108.564 197.276C109.052 197.828 109.296 198.66 109.296 199.772C109.296 200.5 109.184 201.116 108.96 201.62C108.744 202.116 108.436 202.492 108.036 202.748C107.644 202.996 107.18 203.12 106.644 203.12C106.316 203.12 106.024 203.076 105.768 202.988C105.512 202.9 105.292 202.788 105.108 202.652C104.932 202.508 104.78 202.352 104.652 202.184H104.58C104.596 202.32 104.612 202.492 104.628 202.7C104.644 202.908 104.652 203.088 104.652 203.24V205.88H103.596V196.568H104.46L104.604 197.444H104.652C104.78 197.26 104.932 197.092 105.108 196.94C105.292 196.788 105.508 196.668 105.756 196.58C106.012 196.492 106.312 196.448 106.656 196.448ZM106.464 197.336C106.032 197.336 105.684 197.42 105.42 197.588C105.156 197.748 104.964 197.992 104.844 198.32C104.724 198.648 104.66 199.064 104.652 199.568V199.772C104.652 200.3 104.708 200.748 104.82 201.116C104.932 201.484 105.12 201.764 105.384 201.956C105.656 202.148 106.024 202.244 106.488 202.244C106.88 202.244 107.2 202.136 107.448 201.92C107.704 201.704 107.892 201.412 108.012 201.044C108.14 200.668 108.204 200.24 108.204 199.76C108.204 199.024 108.06 198.436 107.772 197.996C107.492 197.556 107.056 197.336 106.464 197.336ZM116.571 199.772C116.571 200.308 116.499 200.784 116.355 201.2C116.219 201.608 116.019 201.956 115.755 202.244C115.499 202.532 115.183 202.752 114.807 202.904C114.439 203.048 114.027 203.12 113.571 203.12C113.147 203.12 112.755 203.048 112.395 202.904C112.035 202.752 111.723 202.532 111.459 202.244C111.195 201.956 110.987 201.608 110.835 201.2C110.691 200.784 110.619 200.308 110.619 199.772C110.619 199.06 110.739 198.46 110.979 197.972C111.219 197.476 111.563 197.1 112.011 196.844C112.459 196.58 112.991 196.448 113.607 196.448C114.191 196.448 114.703 196.58 115.143 196.844C115.591 197.1 115.939 197.476 116.187 197.972C116.443 198.46 116.571 199.06 116.571 199.772ZM111.711 199.772C111.711 200.276 111.775 200.716 111.903 201.092C112.039 201.46 112.247 201.744 112.527 201.944C112.807 202.144 113.163 202.244 113.595 202.244C114.027 202.244 114.383 202.144 114.663 201.944C114.943 201.744 115.147 201.46 115.275 201.092C115.411 200.716 115.479 200.276 115.479 199.772C115.479 199.26 115.411 198.824 115.275 198.464C115.139 198.104 114.931 197.828 114.651 197.636C114.379 197.436 114.023 197.336 113.583 197.336C112.927 197.336 112.451 197.552 112.155 197.984C111.859 198.416 111.711 199.012 111.711 199.772ZM123.621 196.568V203H122.757L122.601 202.148H122.553C122.417 202.372 122.241 202.556 122.025 202.7C121.809 202.844 121.573 202.948 121.317 203.012C121.061 203.084 120.793 203.12 120.513 203.12C120.001 203.12 119.569 203.04 119.217 202.88C118.873 202.712 118.613 202.456 118.437 202.112C118.261 201.768 118.173 201.324 118.173 200.78V196.568H119.241V200.708C119.241 201.22 119.357 201.604 119.589 201.86C119.821 202.116 120.181 202.244 120.669 202.244C121.149 202.244 121.525 202.156 121.797 201.98C122.077 201.796 122.273 201.532 122.385 201.188C122.505 200.836 122.565 200.412 122.565 199.916V196.568H123.621ZM128.663 196.448C128.783 196.448 128.911 196.456 129.047 196.472C129.191 196.48 129.315 196.496 129.419 196.52L129.287 197.492C129.183 197.468 129.067 197.448 128.939 197.432C128.819 197.416 128.703 197.408 128.591 197.408C128.343 197.408 128.107 197.46 127.883 197.564C127.659 197.668 127.459 197.816 127.283 198.008C127.107 198.192 126.967 198.416 126.863 198.68C126.767 198.944 126.719 199.24 126.719 199.568V203H125.663V196.568H126.527L126.647 197.744H126.695C126.831 197.504 126.995 197.288 127.187 197.096C127.379 196.896 127.599 196.74 127.847 196.628C128.095 196.508 128.367 196.448 128.663 196.448ZM134.793 196.568V203H133.737V196.568H134.793ZM134.277 194.156C134.437 194.156 134.577 194.212 134.697 194.324C134.825 194.428 134.889 194.596 134.889 194.828C134.889 195.052 134.825 195.22 134.697 195.332C134.577 195.444 134.437 195.5 134.277 195.5C134.101 195.5 133.953 195.444 133.833 195.332C133.713 195.22 133.653 195.052 133.653 194.828C133.653 194.596 133.713 194.428 133.833 194.324C133.953 194.212 134.101 194.156 134.277 194.156ZM139.927 196.448C140.695 196.448 141.275 196.636 141.667 197.012C142.059 197.38 142.255 197.98 142.255 198.812V203H141.211V198.884C141.211 198.364 141.095 197.976 140.863 197.72C140.631 197.464 140.267 197.336 139.771 197.336C139.059 197.336 138.567 197.536 138.295 197.936C138.023 198.336 137.887 198.912 137.887 199.664V203H136.831V196.568H137.683L137.839 197.444H137.899C138.043 197.22 138.219 197.036 138.427 196.892C138.643 196.74 138.879 196.628 139.135 196.556C139.391 196.484 139.655 196.448 139.927 196.448ZM145.665 203L143.229 196.568H144.357L145.725 200.36C145.789 200.536 145.857 200.732 145.929 200.948C146.001 201.164 146.065 201.372 146.121 201.572C146.177 201.764 146.217 201.928 146.241 202.064H146.289C146.321 201.928 146.365 201.76 146.421 201.56C146.485 201.36 146.553 201.152 146.625 200.936C146.705 200.72 146.773 200.528 146.829 200.36L148.197 196.568H149.325L146.877 203H145.665ZM152.826 196.448C153.378 196.448 153.85 196.568 154.242 196.808C154.642 197.048 154.946 197.388 155.154 197.828C155.37 198.26 155.478 198.768 155.478 199.352V199.988H151.074C151.09 200.716 151.274 201.272 151.626 201.656C151.986 202.032 152.486 202.22 153.126 202.22C153.534 202.22 153.894 202.184 154.206 202.112C154.526 202.032 154.854 201.92 155.19 201.776V202.7C154.862 202.844 154.538 202.948 154.218 203.012C153.898 203.084 153.518 203.12 153.078 203.12C152.47 203.12 151.93 202.996 151.458 202.748C150.994 202.5 150.63 202.132 150.366 201.644C150.11 201.148 149.982 200.544 149.982 199.832C149.982 199.128 150.098 198.524 150.33 198.02C150.57 197.516 150.902 197.128 151.326 196.856C151.758 196.584 152.258 196.448 152.826 196.448ZM152.814 197.312C152.31 197.312 151.91 197.476 151.614 197.804C151.326 198.124 151.154 198.572 151.098 199.148H154.374C154.374 198.78 154.318 198.46 154.206 198.188C154.094 197.916 153.922 197.704 153.69 197.552C153.466 197.392 153.174 197.312 152.814 197.312ZM161.304 201.224C161.304 201.64 161.2 201.988 160.992 202.268C160.784 202.548 160.488 202.76 160.104 202.904C159.72 203.048 159.264 203.12 158.736 203.12C158.288 203.12 157.9 203.084 157.572 203.012C157.252 202.94 156.968 202.84 156.72 202.712V201.752C156.976 201.88 157.284 202 157.644 202.112C158.012 202.216 158.384 202.268 158.76 202.268C159.296 202.268 159.684 202.184 159.924 202.016C160.164 201.84 160.284 201.608 160.284 201.32C160.284 201.16 160.24 201.016 160.152 200.888C160.064 200.76 159.904 200.632 159.672 200.504C159.448 200.376 159.124 200.232 158.7 200.072C158.284 199.912 157.928 199.752 157.632 199.592C157.336 199.432 157.108 199.24 156.948 199.016C156.788 198.792 156.708 198.504 156.708 198.152C156.708 197.608 156.928 197.188 157.368 196.892C157.816 196.596 158.4 196.448 159.12 196.448C159.512 196.448 159.876 196.488 160.212 196.568C160.556 196.64 160.876 196.744 161.172 196.88L160.812 197.72C160.636 197.64 160.448 197.572 160.248 197.516C160.056 197.452 159.86 197.404 159.66 197.372C159.46 197.332 159.256 197.312 159.048 197.312C158.616 197.312 158.284 197.384 158.052 197.528C157.828 197.664 157.716 197.852 157.716 198.092C157.716 198.268 157.768 198.42 157.872 198.548C157.976 198.668 158.148 198.788 158.388 198.908C158.636 199.02 158.964 199.156 159.372 199.316C159.78 199.468 160.128 199.624 160.416 199.784C160.704 199.944 160.924 200.14 161.076 200.372C161.228 200.596 161.304 200.88 161.304 201.224ZM165.006 202.256C165.166 202.256 165.33 202.244 165.498 202.22C165.666 202.188 165.802 202.156 165.906 202.124V202.928C165.794 202.984 165.634 203.028 165.426 203.06C165.218 203.1 165.018 203.12 164.826 203.12C164.49 203.12 164.178 203.064 163.89 202.952C163.61 202.832 163.382 202.628 163.206 202.34C163.03 202.052 162.942 201.648 162.942 201.128V197.384H162.03V196.88L162.954 196.46L163.374 195.092H163.998V196.568H165.858V197.384H163.998V201.104C163.998 201.496 164.09 201.788 164.274 201.98C164.466 202.164 164.71 202.256 165.006 202.256ZM168.25 196.568V203H167.194V196.568H168.25ZM167.734 194.156C167.894 194.156 168.034 194.212 168.154 194.324C168.282 194.428 168.346 194.596 168.346 194.828C168.346 195.052 168.282 195.22 168.154 195.332C168.034 195.444 167.894 195.5 167.734 195.5C167.558 195.5 167.41 195.444 167.29 195.332C167.17 195.22 167.11 195.052 167.11 194.828C167.11 194.596 167.17 194.428 167.29 194.324C167.41 194.212 167.558 194.156 167.734 194.156ZM173.288 196.448C173.408 196.448 173.536 196.456 173.672 196.472C173.816 196.48 173.94 196.496 174.044 196.52L173.912 197.492C173.808 197.468 173.692 197.448 173.564 197.432C173.444 197.416 173.328 197.408 173.216 197.408C172.968 197.408 172.732 197.46 172.508 197.564C172.284 197.668 172.084 197.816 171.908 198.008C171.732 198.192 171.592 198.416 171.488 198.68C171.392 198.944 171.344 199.24 171.344 199.568V203H170.288V196.568H171.152L171.272 197.744H171.32C171.456 197.504 171.62 197.288 171.812 197.096C172.004 196.896 172.224 196.74 172.472 196.628C172.72 196.508 172.992 196.448 173.288 196.448ZM182.55 201.224C182.55 201.64 182.446 201.988 182.238 202.268C182.03 202.548 181.734 202.76 181.35 202.904C180.966 203.048 180.51 203.12 179.982 203.12C179.534 203.12 179.146 203.084 178.818 203.012C178.498 202.94 178.214 202.84 177.966 202.712V201.752C178.222 201.88 178.53 202 178.89 202.112C179.258 202.216 179.63 202.268 180.006 202.268C180.542 202.268 180.93 202.184 181.17 202.016C181.41 201.84 181.53 201.608 181.53 201.32C181.53 201.16 181.486 201.016 181.398 200.888C181.31 200.76 181.15 200.632 180.918 200.504C180.694 200.376 180.37 200.232 179.946 200.072C179.53 199.912 179.174 199.752 178.878 199.592C178.582 199.432 178.354 199.24 178.194 199.016C178.034 198.792 177.954 198.504 177.954 198.152C177.954 197.608 178.174 197.188 178.614 196.892C179.062 196.596 179.646 196.448 180.366 196.448C180.758 196.448 181.122 196.488 181.458 196.568C181.802 196.64 182.122 196.744 182.418 196.88L182.058 197.72C181.882 197.64 181.694 197.572 181.494 197.516C181.302 197.452 181.106 197.404 180.906 197.372C180.706 197.332 180.502 197.312 180.294 197.312C179.862 197.312 179.53 197.384 179.298 197.528C179.074 197.664 178.962 197.852 178.962 198.092C178.962 198.268 179.014 198.42 179.118 198.548C179.222 198.668 179.394 198.788 179.634 198.908C179.882 199.02 180.21 199.156 180.618 199.316C181.026 199.468 181.374 199.624 181.662 199.784C181.95 199.944 182.17 200.14 182.322 200.372C182.474 200.596 182.55 200.88 182.55 201.224ZM185.16 196.568V203H184.104V196.568H185.16ZM184.644 194.156C184.804 194.156 184.944 194.212 185.064 194.324C185.192 194.428 185.256 194.596 185.256 194.828C185.256 195.052 185.192 195.22 185.064 195.332C184.944 195.444 184.804 195.5 184.644 195.5C184.468 195.5 184.32 195.444 184.2 195.332C184.08 195.22 184.02 195.052 184.02 194.828C184.02 194.596 184.08 194.428 184.2 194.324C184.32 194.212 184.468 194.156 184.644 194.156ZM194.254 196.448C194.982 196.448 195.526 196.636 195.886 197.012C196.246 197.38 196.426 197.98 196.426 198.812V203H195.382V198.86C195.382 198.356 195.274 197.976 195.058 197.72C194.85 197.464 194.522 197.336 194.074 197.336C193.45 197.336 193.002 197.516 192.73 197.876C192.466 198.236 192.334 198.76 192.334 199.448V203H191.29V198.86C191.29 198.524 191.242 198.244 191.146 198.02C191.05 197.788 190.906 197.616 190.714 197.504C190.522 197.392 190.274 197.336 189.97 197.336C189.538 197.336 189.198 197.428 188.95 197.612C188.702 197.788 188.522 198.048 188.41 198.392C188.306 198.736 188.254 199.16 188.254 199.664V203H187.198V196.568H188.05L188.206 197.444H188.266C188.402 197.22 188.566 197.036 188.758 196.892C188.958 196.74 189.178 196.628 189.418 196.556C189.658 196.484 189.906 196.448 190.162 196.448C190.658 196.448 191.07 196.536 191.398 196.712C191.734 196.888 191.978 197.16 192.13 197.528H192.19C192.406 197.16 192.698 196.888 193.066 196.712C193.442 196.536 193.838 196.448 194.254 196.448ZM201.473 196.448C202.265 196.448 202.901 196.724 203.381 197.276C203.869 197.828 204.113 198.66 204.113 199.772C204.113 200.5 204.001 201.116 203.777 201.62C203.561 202.116 203.253 202.492 202.853 202.748C202.461 202.996 201.997 203.12 201.461 203.12C201.133 203.12 200.841 203.076 200.585 202.988C200.329 202.9 200.109 202.788 199.925 202.652C199.749 202.508 199.597 202.352 199.469 202.184H199.397C199.413 202.32 199.429 202.492 199.445 202.7C199.461 202.908 199.469 203.088 199.469 203.24V205.88H198.413V196.568H199.277L199.421 197.444H199.469C199.597 197.26 199.749 197.092 199.925 196.94C200.109 196.788 200.325 196.668 200.573 196.58C200.829 196.492 201.129 196.448 201.473 196.448ZM201.281 197.336C200.849 197.336 200.501 197.42 200.237 197.588C199.973 197.748 199.781 197.992 199.661 198.32C199.541 198.648 199.477 199.064 199.469 199.568V199.772C199.469 200.3 199.525 200.748 199.637 201.116C199.749 201.484 199.937 201.764 200.201 201.956C200.473 202.148 200.841 202.244 201.305 202.244C201.697 202.244 202.017 202.136 202.265 201.92C202.521 201.704 202.709 201.412 202.829 201.044C202.957 200.668 203.021 200.24 203.021 199.76C203.021 199.024 202.877 198.436 202.589 197.996C202.309 197.556 201.873 197.336 201.281 197.336ZM206.851 203H205.795V193.88H206.851V203ZM211.373 196.448C211.925 196.448 212.397 196.568 212.789 196.808C213.189 197.048 213.493 197.388 213.701 197.828C213.917 198.26 214.025 198.768 214.025 199.352V199.988H209.621C209.637 200.716 209.821 201.272 210.173 201.656C210.533 202.032 211.033 202.22 211.673 202.22C212.081 202.22 212.441 202.184 212.753 202.112C213.073 202.032 213.401 201.92 213.737 201.776V202.7C213.409 202.844 213.085 202.948 212.765 203.012C212.445 203.084 212.065 203.12 211.625 203.12C211.017 203.12 210.477 202.996 210.005 202.748C209.541 202.5 209.177 202.132 208.913 201.644C208.657 201.148 208.529 200.544 208.529 199.832C208.529 199.128 208.645 198.524 208.877 198.02C209.117 197.516 209.449 197.128 209.873 196.856C210.305 196.584 210.805 196.448 211.373 196.448ZM211.361 197.312C210.857 197.312 210.457 197.476 210.161 197.804C209.873 198.124 209.701 198.572 209.645 199.148H212.921C212.921 198.78 212.865 198.46 212.753 198.188C212.641 197.916 212.469 197.704 212.237 197.552C212.013 197.392 211.721 197.312 211.361 197.312ZM222.719 196.448C223.447 196.448 223.991 196.636 224.351 197.012C224.711 197.38 224.891 197.98 224.891 198.812V203H223.847V198.86C223.847 198.356 223.739 197.976 223.523 197.72C223.315 197.464 222.987 197.336 222.539 197.336C221.915 197.336 221.467 197.516 221.195 197.876C220.931 198.236 220.799 198.76 220.799 199.448V203H219.755V198.86C219.755 198.524 219.707 198.244 219.611 198.02C219.515 197.788 219.371 197.616 219.179 197.504C218.987 197.392 218.739 197.336 218.435 197.336C218.003 197.336 217.663 197.428 217.415 197.612C217.167 197.788 216.987 198.048 216.875 198.392C216.771 198.736 216.719 199.16 216.719 199.664V203H215.663V196.568H216.515L216.671 197.444H216.731C216.867 197.22 217.031 197.036 217.223 196.892C217.423 196.74 217.643 196.628 217.883 196.556C218.123 196.484 218.371 196.448 218.627 196.448C219.123 196.448 219.535 196.536 219.863 196.712C220.199 196.888 220.443 197.16 220.595 197.528H220.655C220.871 197.16 221.163 196.888 221.531 196.712C221.907 196.536 222.303 196.448 222.719 196.448ZM229.361 196.448C229.913 196.448 230.385 196.568 230.777 196.808C231.177 197.048 231.481 197.388 231.689 197.828C231.905 198.26 232.013 198.768 232.013 199.352V199.988H227.609C227.625 200.716 227.809 201.272 228.161 201.656C228.521 202.032 229.021 202.22 229.661 202.22C230.069 202.22 230.429 202.184 230.741 202.112C231.061 202.032 231.389 201.92 231.725 201.776V202.7C231.397 202.844 231.073 202.948 230.753 203.012C230.433 203.084 230.053 203.12 229.613 203.12C229.005 203.12 228.465 202.996 227.993 202.748C227.529 202.5 227.165 202.132 226.901 201.644C226.645 201.148 226.517 200.544 226.517 199.832C226.517 199.128 226.633 198.524 226.865 198.02C227.105 197.516 227.437 197.128 227.861 196.856C228.293 196.584 228.793 196.448 229.361 196.448ZM229.349 197.312C228.845 197.312 228.445 197.476 228.149 197.804C227.861 198.124 227.689 198.572 227.633 199.148H230.909C230.909 198.78 230.853 198.46 230.741 198.188C230.629 197.916 230.457 197.704 230.225 197.552C230.001 197.392 229.709 197.312 229.349 197.312ZM236.747 196.448C237.515 196.448 238.095 196.636 238.487 197.012C238.879 197.38 239.075 197.98 239.075 198.812V203H238.031V198.884C238.031 198.364 237.915 197.976 237.683 197.72C237.451 197.464 237.087 197.336 236.591 197.336C235.879 197.336 235.387 197.536 235.115 197.936C234.843 198.336 234.707 198.912 234.707 199.664V203H233.651V196.568H234.503L234.659 197.444H234.719C234.863 197.22 235.039 197.036 235.247 196.892C235.463 196.74 235.699 196.628 235.955 196.556C236.211 196.484 236.475 196.448 236.747 196.448ZM243.217 202.256C243.377 202.256 243.541 202.244 243.709 202.22C243.877 202.188 244.013 202.156 244.117 202.124V202.928C244.005 202.984 243.845 203.028 243.637 203.06C243.429 203.1 243.229 203.12 243.037 203.12C242.701 203.12 242.389 203.064 242.101 202.952C241.821 202.832 241.593 202.628 241.417 202.34C241.241 202.052 241.153 201.648 241.153 201.128V197.384H240.241V196.88L241.165 196.46L241.585 195.092H242.209V196.568H244.069V197.384H242.209V201.104C242.209 201.496 242.301 201.788 242.485 201.98C242.677 202.164 242.921 202.256 243.217 202.256ZM251.006 196.448C251.558 196.448 252.03 196.568 252.422 196.808C252.822 197.048 253.126 197.388 253.334 197.828C253.55 198.26 253.658 198.768 253.658 199.352V199.988H249.254C249.27 200.716 249.454 201.272 249.806 201.656C250.166 202.032 250.666 202.22 251.306 202.22C251.714 202.22 252.074 202.184 252.386 202.112C252.706 202.032 253.034 201.92 253.37 201.776V202.7C253.042 202.844 252.718 202.948 252.398 203.012C252.078 203.084 251.698 203.12 251.258 203.12C250.65 203.12 250.11 202.996 249.638 202.748C249.174 202.5 248.81 202.132 248.546 201.644C248.29 201.148 248.162 200.544 248.162 199.832C248.162 199.128 248.278 198.524 248.51 198.02C248.75 197.516 249.082 197.128 249.506 196.856C249.938 196.584 250.438 196.448 251.006 196.448ZM250.994 197.312C250.49 197.312 250.09 197.476 249.794 197.804C249.506 198.124 249.334 198.572 249.278 199.148H252.554C252.554 198.78 252.498 198.46 252.386 198.188C252.274 197.916 252.102 197.704 251.87 197.552C251.646 197.392 251.354 197.312 250.994 197.312ZM257.443 202.256C257.603 202.256 257.767 202.244 257.935 202.22C258.103 202.188 258.239 202.156 258.343 202.124V202.928C258.231 202.984 258.071 203.028 257.863 203.06C257.655 203.1 257.455 203.12 257.263 203.12C256.927 203.12 256.615 203.064 256.327 202.952C256.047 202.832 255.819 202.628 255.643 202.34C255.467 202.052 255.379 201.648 255.379 201.128V197.384H254.467V196.88L255.391 196.46L255.811 195.092H256.435V196.568H258.295V197.384H256.435V201.104C256.435 201.496 256.527 201.788 256.711 201.98C256.903 202.164 257.147 202.256 257.443 202.256ZM266.937 201.224C266.937 201.64 266.833 201.988 266.625 202.268C266.417 202.548 266.121 202.76 265.737 202.904C265.353 203.048 264.897 203.12 264.369 203.12C263.921 203.12 263.533 203.084 263.205 203.012C262.885 202.94 262.601 202.84 262.353 202.712V201.752C262.609 201.88 262.917 202 263.277 202.112C263.645 202.216 264.017 202.268 264.393 202.268C264.929 202.268 265.317 202.184 265.557 202.016C265.797 201.84 265.917 201.608 265.917 201.32C265.917 201.16 265.873 201.016 265.785 200.888C265.697 200.76 265.537 200.632 265.305 200.504C265.081 200.376 264.757 200.232 264.333 200.072C263.917 199.912 263.561 199.752 263.265 199.592C262.969 199.432 262.741 199.24 262.581 199.016C262.421 198.792 262.341 198.504 262.341 198.152C262.341 197.608 262.561 197.188 263.001 196.892C263.449 196.596 264.033 196.448 264.753 196.448C265.145 196.448 265.509 196.488 265.845 196.568C266.189 196.64 266.509 196.744 266.805 196.88L266.445 197.72C266.269 197.64 266.081 197.572 265.881 197.516C265.689 197.452 265.493 197.404 265.293 197.372C265.093 197.332 264.889 197.312 264.681 197.312C264.249 197.312 263.917 197.384 263.685 197.528C263.461 197.664 263.349 197.852 263.349 198.092C263.349 198.268 263.401 198.42 263.505 198.548C263.609 198.668 263.781 198.788 264.021 198.908C264.269 199.02 264.597 199.156 265.005 199.316C265.413 199.468 265.761 199.624 266.049 199.784C266.337 199.944 266.557 200.14 266.709 200.372C266.861 200.596 266.937 200.88 266.937 201.224ZM270.975 196.448C271.527 196.448 271.999 196.568 272.391 196.808C272.791 197.048 273.095 197.388 273.303 197.828C273.519 198.26 273.627 198.768 273.627 199.352V199.988H269.223C269.239 200.716 269.423 201.272 269.775 201.656C270.135 202.032 270.635 202.22 271.275 202.22C271.683 202.22 272.043 202.184 272.355 202.112C272.675 202.032 273.003 201.92 273.339 201.776V202.7C273.011 202.844 272.687 202.948 272.367 203.012C272.047 203.084 271.667 203.12 271.227 203.12C270.619 203.12 270.079 202.996 269.607 202.748C269.143 202.5 268.779 202.132 268.515 201.644C268.259 201.148 268.131 200.544 268.131 199.832C268.131 199.128 268.247 198.524 268.479 198.02C268.719 197.516 269.051 197.128 269.475 196.856C269.907 196.584 270.407 196.448 270.975 196.448ZM270.963 197.312C270.459 197.312 270.059 197.476 269.763 197.804C269.475 198.124 269.303 198.572 269.247 199.148H272.523C272.523 198.78 272.467 198.46 272.355 198.188C272.243 197.916 272.071 197.704 271.839 197.552C271.615 197.392 271.323 197.312 270.963 197.312ZM278.264 196.448C278.384 196.448 278.512 196.456 278.648 196.472C278.792 196.48 278.916 196.496 279.02 196.52L278.888 197.492C278.784 197.468 278.668 197.448 278.54 197.432C278.42 197.416 278.304 197.408 278.192 197.408C277.944 197.408 277.708 197.46 277.484 197.564C277.26 197.668 277.06 197.816 276.884 198.008C276.708 198.192 276.568 198.416 276.464 198.68C276.368 198.944 276.32 199.24 276.32 199.568V203H275.264V196.568H276.128L276.248 197.744H276.296C276.432 197.504 276.596 197.288 276.788 197.096C276.98 196.896 277.2 196.74 277.448 196.628C277.696 196.508 277.968 196.448 278.264 196.448ZM282.471 196.448C283.023 196.448 283.495 196.568 283.887 196.808C284.287 197.048 284.591 197.388 284.799 197.828C285.015 198.26 285.123 198.768 285.123 199.352V199.988H280.719C280.735 200.716 280.919 201.272 281.271 201.656C281.631 202.032 282.131 202.22 282.771 202.22C283.179 202.22 283.539 202.184 283.851 202.112C284.171 202.032 284.499 201.92 284.835 201.776V202.7C284.507 202.844 284.183 202.948 283.863 203.012C283.543 203.084 283.163 203.12 282.723 203.12C282.115 203.12 281.575 202.996 281.103 202.748C280.639 202.5 280.275 202.132 280.011 201.644C279.755 201.148 279.627 200.544 279.627 199.832C279.627 199.128 279.743 198.524 279.975 198.02C280.215 197.516 280.547 197.128 280.971 196.856C281.403 196.584 281.903 196.448 282.471 196.448ZM282.459 197.312C281.955 197.312 281.555 197.476 281.259 197.804C280.971 198.124 280.799 198.572 280.743 199.148H284.019C284.019 198.78 283.963 198.46 283.851 198.188C283.739 197.916 283.567 197.704 283.335 197.552C283.111 197.392 282.819 197.312 282.459 197.312ZM287.816 196.568V203H286.76V196.568H287.816ZM287.3 194.156C287.46 194.156 287.6 194.212 287.72 194.324C287.848 194.428 287.912 194.596 287.912 194.828C287.912 195.052 287.848 195.22 287.72 195.332C287.6 195.444 287.46 195.5 287.3 195.5C287.124 195.5 286.976 195.444 286.856 195.332C286.736 195.22 286.676 195.052 286.676 194.828C286.676 194.596 286.736 194.428 286.856 194.324C286.976 194.212 287.124 194.156 287.3 194.156ZM292.95 196.448C293.718 196.448 294.298 196.636 294.69 197.012C295.082 197.38 295.278 197.98 295.278 198.812V203H294.234V198.884C294.234 198.364 294.118 197.976 293.886 197.72C293.654 197.464 293.29 197.336 292.794 197.336C292.082 197.336 291.59 197.536 291.318 197.936C291.046 198.336 290.91 198.912 290.91 199.664V203H289.854V196.568H290.706L290.862 197.444H290.922C291.066 197.22 291.242 197.036 291.45 196.892C291.666 196.74 291.902 196.628 292.158 196.556C292.414 196.484 292.678 196.448 292.95 196.448ZM299.756 196.448C300.308 196.448 300.78 196.568 301.172 196.808C301.572 197.048 301.876 197.388 302.084 197.828C302.3 198.26 302.408 198.768 302.408 199.352V199.988H298.004C298.02 200.716 298.204 201.272 298.556 201.656C298.916 202.032 299.416 202.22 300.056 202.22C300.464 202.22 300.824 202.184 301.136 202.112C301.456 202.032 301.784 201.92 302.12 201.776V202.7C301.792 202.844 301.468 202.948 301.148 203.012C300.828 203.084 300.448 203.12 300.008 203.12C299.4 203.12 298.86 202.996 298.388 202.748C297.924 202.5 297.56 202.132 297.296 201.644C297.04 201.148 296.912 200.544 296.912 199.832C296.912 199.128 297.028 198.524 297.26 198.02C297.5 197.516 297.832 197.128 298.256 196.856C298.688 196.584 299.188 196.448 299.756 196.448ZM299.744 197.312C299.24 197.312 298.84 197.476 298.544 197.804C298.256 198.124 298.084 198.572 298.028 199.148H301.304C301.304 198.78 301.248 198.46 301.136 198.188C301.024 197.916 300.852 197.704 300.62 197.552C300.396 197.392 300.104 197.312 299.744 197.312ZM311.101 196.448C311.829 196.448 312.373 196.636 312.733 197.012C313.093 197.38 313.273 197.98 313.273 198.812V203H312.229V198.86C312.229 198.356 312.121 197.976 311.905 197.72C311.697 197.464 311.369 197.336 310.921 197.336C310.297 197.336 309.849 197.516 309.577 197.876C309.313 198.236 309.181 198.76 309.181 199.448V203H308.137V198.86C308.137 198.524 308.089 198.244 307.993 198.02C307.897 197.788 307.753 197.616 307.561 197.504C307.369 197.392 307.121 197.336 306.817 197.336C306.385 197.336 306.045 197.428 305.797 197.612C305.549 197.788 305.369 198.048 305.257 198.392C305.153 198.736 305.101 199.16 305.101 199.664V203H304.045V196.568H304.897L305.053 197.444H305.113C305.249 197.22 305.413 197.036 305.605 196.892C305.805 196.74 306.025 196.628 306.265 196.556C306.505 196.484 306.753 196.448 307.009 196.448C307.505 196.448 307.917 196.536 308.245 196.712C308.581 196.888 308.825 197.16 308.977 197.528H309.037C309.253 197.16 309.545 196.888 309.913 196.712C310.289 196.536 310.685 196.448 311.101 196.448ZM317.744 196.448C318.296 196.448 318.768 196.568 319.16 196.808C319.56 197.048 319.864 197.388 320.072 197.828C320.288 198.26 320.396 198.768 320.396 199.352V199.988H315.992C316.008 200.716 316.192 201.272 316.544 201.656C316.904 202.032 317.404 202.22 318.044 202.22C318.452 202.22 318.812 202.184 319.124 202.112C319.444 202.032 319.772 201.92 320.108 201.776V202.7C319.78 202.844 319.456 202.948 319.136 203.012C318.816 203.084 318.436 203.12 317.996 203.12C317.388 203.12 316.848 202.996 316.376 202.748C315.912 202.5 315.548 202.132 315.284 201.644C315.028 201.148 314.9 200.544 314.9 199.832C314.9 199.128 315.016 198.524 315.248 198.02C315.488 197.516 315.82 197.128 316.244 196.856C316.676 196.584 317.176 196.448 317.744 196.448ZM317.732 197.312C317.228 197.312 316.828 197.476 316.532 197.804C316.244 198.124 316.072 198.572 316.016 199.148H319.292C319.292 198.78 319.236 198.46 319.124 198.188C319.012 197.916 318.84 197.704 318.608 197.552C318.384 197.392 318.092 197.312 317.732 197.312ZM325.13 196.448C325.898 196.448 326.478 196.636 326.87 197.012C327.262 197.38 327.458 197.98 327.458 198.812V203H326.414V198.884C326.414 198.364 326.298 197.976 326.066 197.72C325.834 197.464 325.47 197.336 324.974 197.336C324.262 197.336 323.77 197.536 323.498 197.936C323.226 198.336 323.09 198.912 323.09 199.664V203H322.034V196.568H322.886L323.042 197.444H323.102C323.246 197.22 323.422 197.036 323.63 196.892C323.846 196.74 324.082 196.628 324.338 196.556C324.594 196.484 324.858 196.448 325.13 196.448ZM331.6 202.256C331.76 202.256 331.924 202.244 332.092 202.22C332.26 202.188 332.396 202.156 332.5 202.124V202.928C332.388 202.984 332.228 203.028 332.02 203.06C331.812 203.1 331.612 203.12 331.42 203.12C331.084 203.12 330.772 203.064 330.484 202.952C330.204 202.832 329.976 202.628 329.8 202.34C329.624 202.052 329.536 201.648 329.536 201.128V197.384H328.624V196.88L329.548 196.46L329.968 195.092H330.592V196.568H332.452V197.384H330.592V201.104C330.592 201.496 330.684 201.788 330.868 201.98C331.06 202.164 331.304 202.256 331.6 202.256Z" fill="#545454"/>
<path d="M104.991 180.966C137.289 184.007 216.421 183.035 274.559 154.822" stroke="#91AA9D" stroke-width="2"/>
<path d="M157 28.5V39.5C157 40.6046 157.895 41.5 159 41.5H175C176.105 41.5 177 40.6046 177 39.5V28.5C177 27.3954 176.105 26.5 175 26.5H159C157.895 26.5 157 27.3954 157 28.5Z" stroke="#545454" stroke-width="4"/>
<path d="M157 55.5V66.5C157 67.6046 157.895 68.5 159 68.5H175C176.105 68.5 177 67.6046 177 66.5V55.5C177 54.3954 176.105 53.5 175 53.5H159C157.895 53.5 157 54.3954 157 55.5Z" stroke="#545454" stroke-width="4"/>
<path d="M157 81.5V92.5C157 93.6046 157.895 94.5 159 94.5H175C176.105 94.5 177 93.6046 177 92.5V81.5C177 80.3954 176.105 79.5 175 79.5H159C157.895 79.5 157 80.3954 157 81.5Z" stroke="#545454" stroke-width="4"/>
<path d="M126 55.5V66.5C126 67.6046 126.895 68.5 128 68.5H144C145.105 68.5 146 67.6046 146 66.5V55.5C146 54.3954 145.105 53.5 144 53.5H128C126.895 53.5 126 54.3954 126 55.5Z" stroke="#545454" stroke-width="4"/>
<path d="M126 81.5V92.5C126 93.6046 126.895 94.5 128 94.5H144C145.105 94.5 146 93.6046 146 92.5V81.5C146 80.3954 145.105 79.5 144 79.5H128C126.895 79.5 126 80.3954 126 81.5Z" stroke="#545454" stroke-width="4"/>
<path d="M189.5 55.5V66.5C189.5 67.6046 190.395 68.5 191.5 68.5H207.5C208.605 68.5 209.5 67.6046 209.5 66.5V55.5C209.5 54.3954 208.605 53.5 207.5 53.5H191.5C190.395 53.5 189.5 54.3954 189.5 55.5Z" stroke="#545454" stroke-width="4"/>
<path d="M189.5 81.5V92.5C189.5 93.6046 190.395 94.5 191.5 94.5H207.5C208.605 94.5 209.5 93.6046 209.5 92.5V81.5C209.5 80.3954 208.605 79.5 207.5 79.5H191.5C190.395 79.5 189.5 80.3954 189.5 81.5Z" stroke="#545454" stroke-width="4"/>
<path d="M221 28.5V39.5C221 40.6046 221.895 41.5 223 41.5H239C240.105 41.5 241 40.6046 241 39.5V28.5C241 27.3954 240.105 26.5 239 26.5H223C221.895 26.5 221 27.3954 221 28.5Z" stroke="#545454" stroke-width="4"/>
<path d="M221 55.5V66.5C221 67.6046 221.895 68.5 223 68.5H239C240.105 68.5 241 67.6046 241 66.5V55.5C241 54.3954 240.105 53.5 239 53.5H223C221.895 53.5 221 54.3954 221 55.5Z" stroke="#545454" stroke-width="4"/>
<path d="M221 81.5V92.5C221 93.6046 221.895 94.5 223 94.5H239C240.105 94.5 241 93.6046 241 92.5V81.5C241 80.3954 240.105 79.5 239 79.5H223C221.895 79.5 221 80.3954 221 81.5Z" stroke="#545454" stroke-width="4"/>
<line x1="120" y1="107.5" x2="247" y2="107.5" stroke="#545454" stroke-width="4"/>
</svg>
